<?xml version="1.0" encoding="UTF-8" standalone="no"?>
<!-- Created with Inkscape (http://www.inkscape.org/) -->

<svg
   width="210mm"
   height="297mm"
   viewBox="0 0 210 297"
   version="1.1"
   id="svg1"
   inkscape:version="1.4.2 (f4327f4, 2025-05-13)"
   sodipodi:docname="Italia_1.svg"
   xmlns:inkscape="http://www.inkscape.org/namespaces/inkscape"
   xmlns:sodipodi="http://sodipodi.sourceforge.net/DTD/sodipodi-0.dtd"
   xmlns="http://www.w3.org/2000/svg"
   xmlns:svg="http://www.w3.org/2000/svg">
  <sodipodi:namedview
     id="namedview1"
     pagecolor="#ffffff"
     bordercolor="#000000"
     borderopacity="0.25"
     inkscape:showpageshadow="2"
     inkscape:pageopacity="0.0"
     inkscape:pagecheckerboard="0"
     inkscape:deskcolor="#d1d1d1"
     inkscape:document-units="mm"
     inkscape:zoom="1.4378367"
     inkscape:cx="13.562041"
     inkscape:cy="1031.0628"
     inkscape:window-width="1920"
     inkscape:window-height="1009"
     inkscape:window-x="-8"
     inkscape:window-y="-7"
     inkscape:window-maximized="1"
     inkscape:current-layer="layer1" />
  <defs
     id="defs1">
    <inkscape:path-effect
       effect="spiro"
       id="path-effect16-1"
       is_visible="true"
       lpeversion="1" />
    <inkscape:path-effect
       effect="spiro"
       id="path-effect16-8-2"
       is_visible="true"
       lpeversion="1" />
  </defs>
  <g
     inkscape:label="Livello 1"
     inkscape:groupmode="layer"
     id="layer1">
    <path
       style="fill:#e8c99a;fill-opacity:1"
       d="m 38.006575,296.20229 c -0.6019,-0.81411 -2.14435,-1.4377 -3.36287,-1.35956 -0.38682,0.0248 -1.02181,-0.31402 -1.64698,-0.87882 -0.55959,-0.50556 -1.34786,-0.99244 -1.75171,-1.08197 -1.35606,-0.3006 -2.58377,-0.71131 -2.91709,-0.97587 -0.46758,-0.37112 -0.41075,-1.654 0.0917,-2.07104 0.35625,-0.29565 0.46201,-0.27999 0.67461,0.0999 0.33577,0.59998 1.1999,0.57318 1.53209,-0.0475 0.14659,-0.27392 0.44233,-0.5655 0.65719,-0.64795 0.404,-0.15502 1.87796,0.46131 2.14794,0.89816 0.20399,0.33005 1.37047,0.31766 1.57715,-0.0168 0.0899,-0.14552 0.7433,-0.26459 1.45192,-0.26459 0.73725,0 1.44325,-0.15484 1.65038,-0.36196 0.48207,-0.48208 1.51691,-0.81158 2.27467,-0.72427 0.42636,0.0491 0.6566,-0.0903 0.75207,-0.45536 0.0757,-0.28938 0.36471,-0.58554 0.6423,-0.65813 0.60722,-0.15879 0.62082,-0.0755 0.114,0.69796 -0.21488,0.32795 -0.69046,1.42272 -1.05684,2.43282 -0.62142,1.71325 -0.6755,2.77311 -0.14151,2.77311 0.12506,0 0.39655,0.33911 0.60331,0.75358 0.31632,0.63406 0.31939,0.83091 0.0194,1.24119 -0.1961,0.26819 -0.35655,0.70299 -0.35655,0.96622 0,0.39036 -0.21805,0.47859 -1.18271,0.47859 -1.00863,0 -1.26951,-0.11741 -1.7725,-0.79774 z m 5.6997,-7.52885 c -0.0821,-0.214 0.10749,-0.71556 0.42136,-1.11458 0.40239,-0.51156 0.54928,-1.02148 0.49817,-1.72936 -0.0567,-0.78592 0.0546,-1.09293 0.513,-1.41397 0.73392,-0.51406 0.75758,-1.53302 0.0563,-2.42455 -0.29104,-0.37 -0.52917,-0.84321 -0.52917,-1.05157 0,-0.20837 -0.27238,-0.75786 -0.60529,-1.22109 -0.82824,-1.15247 -1.31289,-2.60177 -0.98102,-2.93365 0.17216,-0.17215 0.38255,-0.0957 0.6162,0.2238 0.48669,0.66559 1.80819,0.23882 2.06092,-0.66555 0.15529,-0.55571 0.1871,-0.57083 0.23707,-0.11268 0.073,0.66926 0.0691,0.7042 -0.13559,1.22975 -0.24179,0.62073 0.88669,1.6152 1.62312,1.43037 0.91394,-0.22938 1.72732,0.82344 1.78656,2.31249 0.0418,1.04955 -0.0267,1.2451 -0.43617,1.2451 -0.92304,0 -1.78455,1.18977 -1.78455,2.46451 0,0.96874 -0.15642,1.3315 -0.92604,2.14753 -0.50932,0.54004 -0.92604,1.21154 -0.92604,1.49222 0,0.62331 -1.2569,0.72565 -1.48884,0.12123 z M 8.7592741,284.8292 c -0.0761,-0.29104 -0.35819,-0.52917 -0.62684,-0.52917 -0.438422,0 -0.473445,-0.16939 -0.34189,-1.65364 0.08061,-0.90951 0.139837,-2.01083 0.131608,-2.4474 -0.0082,-0.43656 -0.01146,-1.58968 -0.0072,-2.56249 0.0071,-1.61064 -0.05287,-1.80847 -0.670622,-2.21324 -0.3817908,-0.25016 -0.6783938,-0.69453 -0.6783938,-1.01638 0,-0.50354 0.121271,-0.56031 1.0149128,-0.47508 0.882815,0.0842 1.111655,-0.0182 1.758166,-0.78652 0.7084099,-0.84189 2.0314799,-1.80983 2.4738699,-1.80983 0.11389,0 0.60772,0.82818 1.09739,1.84039 l 0.89033,1.84039 -0.4684,1.03872 c -0.36052,0.79948 -0.40225,1.16232 -0.18119,1.57537 0.20806,0.38877 0.19923,1.27236 -0.032,3.20631 -0.30944,2.58758 -0.53105,3.02956 -1.18908,2.37153 -0.50556,-0.50557 -1.65979,-0.0473 -1.65979,0.65903 0,0.57619 -0.7179599,1.49118 -1.1700799,1.49118 -0.11131,0 -0.264641,-0.23813 -0.340751,-0.52917 z m 35.1129209,-8.23293 c 0,-0.17449 -0.27797,-0.24229 -0.67908,-0.16561 -0.65136,0.12452 -0.67236,0.09 -0.51424,-0.84592 0.14635,-0.86624 0.0889,-1.01033 -0.51154,-1.28393 -0.50822,-0.23156 -0.67639,-0.50694 -0.67639,-1.1076 0,-0.55983 -0.12819,-0.79943 -0.42772,-0.79943 -0.33091,0 -0.38972,-0.16468 -0.25984,-0.7276 0.0923,-0.40018 0.20602,-0.90044 0.25263,-1.11169 0.0661,-0.29966 1.55572,-0.97564 1.61226,-0.73164 0.10822,0.46707 0.69508,1.11654 1.01138,1.11929 0.22519,0.002 0.65349,0.22442 0.95179,0.49437 0.37428,0.33873 0.75063,0.43855 1.21447,0.32213 0.57504,-0.14432 0.67212,-0.0801 0.67212,0.4449 0,0.33747 0.12565,0.73923 0.27923,0.89281 0.41899,0.41899 0.0201,1.59504 -0.7013,2.06773 -0.34995,0.2293 -0.63627,0.63955 -0.63627,0.91166 0,0.48937 -0.48521,0.81596 -1.21226,0.81596 -0.20638,0 -0.37524,-0.13294 -0.37524,-0.29543 z m -4.42604,-0.75237 c -0.64519,-0.30773 -0.85557,-0.5808 -0.8599,-1.11611 -0.009,-1.11391 -0.70229,-1.62003 -2.01629,-1.47192 -0.87906,0.0991 -1.09075,0.0475 -0.98083,-0.23894 0.19461,-0.50714 -0.3999,-1.15006 -1.0759,-1.16351 -1.29525,-0.0258 -2.21663,-3.1638 -0.92894,-3.1638 0.27407,0 0.49832,-0.11906 0.49832,-0.26459 0,-0.4171 0.83552,-0.30879 1.37349,0.17806 0.45902,0.41541 0.55379,0.40629 1.54056,-0.14831 l 1.05145,-0.59094 0.30868,0.67747 c 0.16977,0.37261 0.39474,0.67747 0.49993,0.67747 0.10519,0 0.25353,0.23813 0.32964,0.52917 0.0954,0.36496 0.36089,0.52917 0.85546,0.52917 0.59508,0 0.68933,0.09 0.55394,0.52916 -0.0897,0.29105 -0.23841,0.77433 -0.33039,1.07397 -0.12621,0.41113 -0.0288,0.58099 0.39688,0.69232 0.41244,0.10785 0.56411,0.35416 0.56411,0.91608 0,0.56616 0.17689,0.84916 0.67168,1.0746 0.40779,0.1858 0.61569,0.45195 0.52917,0.67743 -0.0784,0.20426 -0.14252,0.524 -0.14252,0.71054 0,0.47107 -1.76587,0.40431 -2.83854,-0.10732 z m 14.86206,-0.23164 c -1.66875,-1.90827 -2.05841,-2.16014 -3.34192,-2.16014 -0.98386,0 -1.31577,-0.11421 -1.53785,-0.52917 -0.29692,-0.5548 -1.43245,-0.7295 -1.71979,-0.26458 -0.30109,0.48718 -0.59388,0.27174 -0.76009,-0.55929 -0.14782,-0.73911 -0.24652,-0.81186 -0.95952,-0.70722 -0.54462,0.0799 -0.93243,-0.0355 -1.23222,-0.36676 -0.24061,-0.26587 -0.64326,-0.4834 -0.89478,-0.4834 -0.25151,0 -0.52382,-0.25439 -0.60513,-0.5653 -0.12391,-0.47384 -0.27874,-0.53805 -0.9569,-0.39688 -0.44499,0.0926 -1.16374,0.24234 -1.59722,0.33268 -0.67016,0.13965 -0.82556,0.0658 -1.03806,-0.49309 -0.13746,-0.36153 -0.43763,-0.72935 -0.66706,-0.81739 -0.22943,-0.088 -0.41714,-0.33249 -0.41714,-0.54321 0,-0.21072 -0.14883,-0.4377 -0.33073,-0.5044 -0.26459,-0.097 -0.26459,-0.19138 0,-0.47184 0.1819,-0.19281 0.33073,-0.61366 0.33073,-0.9352 0,-0.51844 0.21254,-0.62049 1.8769,-0.90122 2.20829,-0.37248 2.84878,-0.097 1.87773,0.8077 -0.53751,0.50077 -0.55256,0.59804 -0.19844,1.28282 0.43753,0.84609 1.91143,1.50196 4.21938,1.87759 0.82428,0.13416 2.06112,0.54124 2.74854,0.90464 0.68741,0.36339 1.70995,0.84499 2.27231,1.07022 0.56235,0.22523 1.4991,0.88615 2.08165,1.4687 0.58255,0.58255 1.15621,1.05918 1.27481,1.05918 0.36394,0 0.51866,0.88444 0.29822,1.70477 l -0.20927,0.77873 z m -25.848,-6.44693 c -0.25466,-0.26164 -0.75762,-0.47571 -1.11768,-0.47571 -0.4508,0 -0.77504,-0.23277 -1.04121,-0.74749 -0.21259,-0.41112 -0.90026,-1.18839 -1.52815,-1.72728 -1.85473,-1.59184 -3.35244,-3.08148 -3.09817,-3.08148 0.13023,0 0.23678,-0.22539 0.23678,-0.50086 0,-0.27547 0.17859,-0.56939 0.39687,-0.65316 0.21828,-0.0838 0.40442,-0.42392 0.41365,-0.75591 l 0.0168,-0.60361 0.24558,0.61232 c 0.14893,0.37134 0.42867,0.58314 0.71083,0.53818 0.25589,-0.0408 0.81006,0.24923 1.23149,0.64445 0.42143,0.39522 0.96853,0.71859 1.21577,0.71859 0.46445,0 1.51862,-0.98245 1.37832,-1.28455 -0.0436,-0.0939 0.25406,-0.24523 0.66146,-0.33637 0.40739,-0.0911 0.96974,-0.26063 1.24967,-0.37666 0.4532,-0.18785 0.44596,-0.14796 -0.0662,0.36414 -0.71467,0.71467 -0.72683,1.21713 -0.0459,1.89802 0.64084,0.64084 0.67934,0.90799 0.0988,0.6852 -0.44073,-0.16912 -1.15709,0.24926 -1.15709,0.67579 0,0.13082 0.32742,0.3773 0.7276,0.54772 0.40018,0.17043 0.91387,0.53455 1.14152,0.80916 0.22766,0.27462 0.82297,0.53239 1.32292,0.57283 0.49995,0.0404 1.04394,0.0905 1.20887,0.11121 0.47462,0.0596 0.6055,1.02486 0.20972,1.54673 -0.19826,0.26143 -0.36426,0.65458 -0.36888,0.87367 -0.0133,0.6292 -3.42251,0.58288 -4.04331,-0.0549 z m 7.06197,-1.03018 c -0.0985,-0.15943 -0.58181,-0.24287 -1.07395,-0.18542 -0.77632,0.0906 -0.89479,0.0277 -0.89479,-0.47556 0,-0.31901 0.1786,-0.64855 0.39688,-0.73232 0.21828,-0.0838 0.39687,-0.33462 0.39687,-0.55747 0,-0.52078 0.49914,-0.52672 0.69807,-0.008 0.25058,0.65299 0.6279,0.4542 1.04848,-0.55239 0.27875,-0.66715 0.51706,-0.90305 0.80189,-0.79375 0.22289,0.0855 0.56023,0.15551 0.74965,0.15551 0.50178,0 0.71319,1.40511 0.25078,1.66679 -0.20563,0.11638 -0.3748,0.41403 -0.37593,0.66146 -0.001,0.24743 -0.32253,0.5987 -0.71421,0.78061 -0.87262,0.40525 -1.05494,0.41105 -1.28374,0.0408 z m -3.92252,-1.82134 c -0.56526,-0.10905 -1.12928,-0.37973 -1.25339,-0.6015 -0.12411,-0.22177 -0.52483,-0.4783 -0.89049,-0.57008 -0.79625,-0.19984 -0.88651,-0.68595 -0.12737,-0.68595 0.71161,0 0.94357,-0.67342 0.41427,-1.20272 -0.50259,-0.50259 -0.56143,-1.44311 -0.0903,-1.44311 0.18276,0 0.47887,-0.32742 0.65803,-0.7276 0.17915,-0.40019 0.62178,-0.86374 0.98362,-1.03014 0.6186,-0.28446 0.7143,-0.21753 1.60284,1.12111 0.51972,0.783 1.24283,1.63351 1.60691,1.89003 1.7825,1.25589 1.74042,1.19195 1.40856,2.14008 -0.21978,0.62795 -0.3895,0.79843 -0.59262,0.59532 -0.46495,-0.46496 -1.2759,-0.3258 -1.42505,0.24453 -0.14781,0.56523 -0.53118,0.61034 -2.29502,0.27003 z m -11.80455,-3.70351 c 0,-0.28769 -0.30852,-0.72521 -0.68559,-0.97228 -0.37707,-0.24707 -0.79084,-0.72606 -0.91949,-1.06443 -0.13951,-0.36693 -0.45215,-0.61522 -0.77466,-0.61522 -0.44304,0 -0.5111,-0.11818 -0.37662,-0.65397 0.11189,-0.44582 -0.0549,-1.04595 -0.52413,-1.88541 -0.37854,-0.67729 -0.68826,-1.58539 -0.68826,-2.018 0,-0.5328 -0.25608,-1.02578 -0.79375,-1.52804 -0.43656,-0.40781 -0.79375,-0.91731 -0.79375,-1.13221 0,-0.21491 -0.26789,-0.57085 -0.59531,-0.79097 -0.86852,-0.5839 -0.30682,-0.92682 0.63383,-0.38695 0.43896,0.25192 0.92792,0.45805 1.08657,0.45805 0.15865,0 0.50436,0.19539 0.76825,0.43421 0.70541,0.63839 2.81126,0.75854 3.433,0.19587 0.40589,-0.36733 0.61731,-0.39448 1.15703,-0.14857 0.37528,0.171 0.66038,0.5235 0.66038,0.81653 0,0.69503 1.21948,1.61237 2.14342,1.61237 h 0.74915 l -0.54898,0.93046 c -0.44893,0.76087 -0.48837,1.00349 -0.2164,1.33118 0.2731,0.32907 0.24457,0.46509 -0.15957,0.7606 -0.3462,0.25315 -0.47348,0.63712 -0.42919,1.29474 0.0346,0.51418 -0.0592,1.01039 -0.20857,1.10269 -0.14934,0.0923 -0.27153,0.39472 -0.27153,0.67206 0,0.27733 -0.24736,0.63662 -0.54969,0.79842 -0.30232,0.1618 -0.48844,0.4538 -0.41358,0.64887 0.14612,0.38077 -0.35415,0.66307 -1.17503,0.66307 -0.32917,0 -0.50753,-0.18383 -0.50753,-0.52307 z m 5.18255,-0.66756 c -0.33716,-0.3638 -0.80773,-0.66146 -1.0457,-0.66146 -0.49009,0 -0.47424,0.047 -0.56434,-1.67462 -0.0483,-0.92247 0.0406,-1.31897 0.31949,-1.42601 0.27337,-0.1049 0.34237,-0.38892 0.23593,-0.97121 -0.16551,-0.90541 0.23085,-1.82529 0.56842,-1.31921 0.10914,0.16362 0.56833,0.37769 1.02042,0.47572 0.85193,0.18472 1.16967,0.6229 1.69365,2.33565 0.16694,0.5457 0.4592,0.99218 0.64946,0.99218 0.19026,0 0.53613,0.2903 0.76861,0.6451 0.39473,0.60243 0.3898,0.65553 -0.0745,0.80288 -0.27343,0.0868 -0.63962,0.12392 -0.81375,0.0825 -0.17413,-0.0414 -0.45435,0.16285 -0.62271,0.45389 -0.6498,1.12331 -1.26816,1.19994 -2.13502,0.26458 z m 3.5664,-2.23125 c -0.59182,-0.59182 -1.07603,-1.26055 -1.07603,-1.48605 0,-1.17811 -1.23921,-2.38404 -2.31511,-2.25293 -0.33976,0.0414 -0.43167,-0.26944 -0.33832,-1.14421 0.0412,-0.38571 -0.0727,-0.4669 -0.4987,-0.3555 -0.6305,0.16488 -0.7257,-0.12635 -0.18735,-0.57314 0.26388,-0.219 0.56835,-0.22524 1.10142,-0.0226 0.47016,0.17875 0.82853,0.18829 0.99046,0.0264 0.32787,-0.32787 0.82397,-0.13294 2.40176,0.94372 0.70756,0.48282 1.38919,0.87785 1.51475,0.87785 0.31454,0 1.33059,2.289 1.38649,3.12356 0.0308,0.45927 -0.13916,0.77602 -0.52146,0.97201 -0.3119,0.15989 -0.75042,0.44287 -0.97448,0.62882 -0.3442,0.28566 -0.5743,0.1712 -1.48343,-0.73793 z M 4.0102433,254.54887 c 0.09595,-0.25004 0.174453,-0.6305 0.174453,-0.84546 0,-0.21497 0.114219,-0.32026 0.253821,-0.23399 0.476852,0.29472 1.346868,-0.52115 1.615239,-1.5147 0.215234,-0.79683 0.393159,-0.99219 0.903648,-0.99219 0.3496048,0 0.7122228,-0.1239 0.8058188,-0.27534 0.09359,-0.15144 0.397211,-0.20329 0.674701,-0.11521 0.2775,0.0881 0.654431,0.0662 0.837631,-0.0487 0.18321,-0.11486 0.7778199,-0.23959 1.3213699,-0.27717 0.88207,-0.061 0.98159,-0.005 0.92604,0.52248 -0.0445,0.4223 0.0707,0.5802 0.40376,0.55358 0.42748,-0.0342 2.04756,1.23068 2.04756,1.5986 0,0.38415 -0.91628,0.10238 -1.63576,-0.50303 -0.43235,-0.3638 -1.06759,-0.66146 -1.41164,-0.66146 -0.34405,0 -0.70265,-0.12475 -0.79689,-0.27724 -0.0942,-0.15248 -0.3691499,-0.24475 -0.6109199,-0.20504 -0.24177,0.0397 -0.585951,-0.0196 -0.764851,-0.13187 -0.36472,-0.22882 -1.394528,0.23007 -1.394528,0.62142 0,0.13928 -0.3571878,0.57149 -0.7937498,0.96047 -0.436563,0.38898 -0.79375,0.84704 -0.79375,1.01791 0,0.26342 -0.48949,0.5956 -1.695807,1.15082 -0.132329,0.0609 -0.162095,-0.0938 -0.06615,-0.34388 z m 18.0991617,-0.67131 c -0.24702,-0.28851 -0.3829,-0.69718 -0.30194,-0.90816 0.0941,-0.24517 -0.14481,-0.5346 -0.66203,-0.80207 -0.75411,-0.38996 -0.87518,-0.38312 -1.77756,0.10053 -1.07843,0.57801 -2.39541,0.49237 -2.94129,-0.19125 -0.1792,-0.22442 -0.53639,-0.42538 -0.79375,-0.44657 -0.25736,-0.0212 -0.76559,-0.20186 -1.12939,-0.40149 -0.3638,-0.19962 -1.10794,-0.33204 -1.65364,-0.29425 -0.83239,0.0576 -0.99219,-0.0148 -0.99219,-0.44984 0,-0.30226 -0.22897,-0.57842 -0.54896,-0.6621 -0.47185,-0.12339 -0.50616,-0.22355 -0.24421,-0.71299 0.16761,-0.31319 0.234,-0.75382 0.14752,-0.97917 -0.38113,-0.99322 1.35331,-1.32897 3.15919,-0.61155 1.1308,0.44923 2.42213,0.63085 2.58713,0.36386 0.0775,-0.12535 0.89629,-0.19273 1.81958,-0.14971 2.04623,0.0953 2.161,0.0921 3.71676,-0.10417 l 1.24429,-0.15698 -0.15435,0.95117 c -0.24421,1.50488 0.36918,3.2044 1.53747,4.25988 0.76313,0.68944 0.90287,0.92567 0.54759,0.92567 -0.26236,0 -0.6071,-0.13009 -0.76611,-0.2891 -0.37171,-0.37171 -1.40423,0.13952 -1.40423,0.69528 0,0.56097 -0.86529,0.47569 -1.38988,-0.13699 z m -18.3981617,-1.2053 c -0.187638,-0.21274 -0.693654,-0.38681 -1.124479,-0.38681 -1.270245,0 -2.46324903,-1.70127 -1.577068,-2.24896 0.484264,-0.29929 0.273136,-1.35493 -0.39687503,-1.98437 -0.84605,-0.79482 -0.832255,-0.92339 0.142403,-1.32711 1.28200503,-0.53102 1.41171503,-1.07832 0.62620903,-2.64223 -0.376389,-0.74937 -0.64377303,-1.38725 -0.59418603,-1.41751 0.45041103,-0.27481 2.14154103,-0.69857 2.78784803,-0.69857 0.695231,0 0.831381,0.11671 0.97524,0.83601 0.09196,0.45981 0.126207,0.87701 0.0761,0.92711 -0.05011,0.0501 -0.600546,0.14017 -1.223201,0.20015 -1.093605,0.10533 -2.192923,0.68256 -1.299928,0.68256 0.223132,0 0.49518,-0.0893 0.60455,-0.19843 0.109371,-0.10914 0.63523,-0.19844 1.168577,-0.19844 h 0.96972 l -0.06978,-1.34477 c -0.05546,-1.06891 0.03952,-1.44368 0.463021,-1.82694 0.293039,-0.2652 0.532798,-0.64232 0.532798,-0.83805 0,-0.19572 0.238125,-0.59399 0.529166,-0.88503 l 0.529167,-0.52917 v 0.64226 c 0,0.36876 0.2797518,0.8623 0.6569498,1.15901 0.627075,0.49326 0.638755,0.55323 0.256823,1.31883 -0.375447,0.7526 -0.359487,0.87487 0.258748,1.98223 0.686044,1.22882 0.656374,1.51225 -0.158285,1.51225 -0.313826,0 -0.485069,0.19296 -0.485069,0.54657 0,0.91134 0.503447,1.5701 1.199938,1.5701 0.35868,0 0.652141,0.13518 0.652141,0.30039 0,0.16521 0.30436,0.58246 0.67636,0.92721 0.7057899,0.65411 0.6713899,1.2481 -0.0561,0.96893 -0.25006,-0.096 -0.52195,0.0185 -0.66925,0.2817 -0.13645,0.24383 -0.369241,0.36844 -0.517321,0.27693 -0.14807,-0.0915 -0.781771,-0.0229 -1.408222,0.15251 -1.0982768,0.3075 -1.7296108,1.02704 -1.7296108,1.97126 0,0.6939 -1.256091,0.88295 -1.796369,0.27038 z m 6.6850517,-4.032 c -0.14888,-0.10519 -0.4831899,-0.52501 -0.7428999,-0.93291 -0.31782,-0.49916 -0.6548,-0.71543 -1.030651,-0.66146 -0.41186,0.0591 -0.607849,-0.10211 -0.746721,-0.61435 -0.157837,-0.5822 -0.111959,-0.67458 0.283641,-0.57113 0.76818,0.20089 0.875011,-0.78907 0.22871,-2.11936 -0.33636,-0.69233 -0.502878,-1.38394 -0.398623,-1.65563 0.165143,-0.43036 0.220543,-0.42207 0.713203,0.10675 0.436231,0.46823 0.633111,0.52039 1.073881,0.28449 0.3763199,-0.2014 0.4973599,-0.46251 0.3997699,-0.86243 -0.077,-0.31546 0.0316,-0.80469 0.24136,-1.08716 0.20972,-0.28248 0.38132,-0.84802 0.38132,-1.25677 v -0.74318 l 0.52916,0.52916 c 0.57576,0.57577 1.19497,0.68566 1.45873,0.2589 0.0978,-0.15819 0.37146,-0.0211 0.66,0.33073 0.47026,0.57332 0.51469,0.57963 0.96456,0.13703 0.40571,-0.39916 0.42722,-0.58153 0.15396,-1.30547 -0.1747,-0.46282 -0.28442,-0.87471 -0.24383,-0.9153 0.0406,-0.0406 0.43504,0.14589 0.87655,0.41439 0.68784,0.4183 0.79689,0.6347 0.76176,1.51156 -0.0226,0.56286 -0.076,1.14244 -0.11874,1.28796 -0.20896,0.71122 0.0149,1.71979 0.3818,1.71979 0.47826,0 0.5067,0.3605 0.0821,1.04044 -0.35391,0.5667 0.0757,1.34081 0.74409,1.34081 0.20046,0 0.36844,0.14883 0.37328,0.33073 0.0139,0.52347 0.88608,1.43342 1.59346,1.66253 l 0.64669,0.20945 -0.74999,0.20467 c -0.41249,0.11256 -0.92654,0.13691 -1.14233,0.0541 -0.21578,-0.0828 -0.66708,-0.004 -1.00287,0.17619 -0.51337,0.27475 -0.81216,0.23757 -1.87729,-0.23359 -0.69671,-0.30819 -1.49121,-0.4891 -1.76556,-0.40202 -0.27434,0.0871 -0.67392,0.013 -0.88795,-0.16464 -0.53226,-0.44174 -1.37959,0.3311 -1.489,1.35811 -0.0485,0.45484 -0.18929,0.68224 -0.35154,0.5676 z M 23.940185,247.41 c -0.11195,-0.29175 -0.4754,-0.40069 -1.23722,-0.37084 -0.59329,0.0232 -1.1401,0.14161 -1.21514,0.26303 -0.25611,0.41439 -1.08022,0.22163 -1.83861,-0.43003 -0.41656,-0.35794 -0.80807,-0.6001 -0.87003,-0.53814 -0.14434,0.14434 -1.10074,-1.06341 -1.10074,-1.39002 0,-0.13559 -0.28638,-0.37701 -0.6364,-0.53649 -0.62541,-0.28496 -0.62884,-0.30535 -0.19844,-1.18057 0.42366,-0.86151 0.45151,-0.87388 0.85257,-0.37874 0.34661,0.42791 0.50933,0.46116 0.99219,0.20275 0.31767,-0.17002 0.57758,-0.50016 0.57758,-0.73366 0,-0.45764 0.72732,-1.12224 1.24314,-1.13592 0.1744,-0.005 0.6454,-0.31268 1.04666,-0.68456 0.59767,-0.55389 0.67634,-0.76137 0.43516,-1.14757 -0.38994,-0.62439 0.31427,-2.14504 0.99336,-2.14504 0.26247,0 0.65581,-0.17859 0.87409,-0.39687 1.02495,-1.02495 1.47208,-0.12964 0.59623,1.19386 -0.74162,1.12066 -0.7236,2.18355 0.0575,3.39134 0.32899,0.5087 0.54918,0.58821 1.2598,0.4549 1.13202,-0.21237 1.37428,0.23834 0.4478,0.83314 -0.40482,0.2599 -0.96243,0.67773 -1.23912,0.92852 -0.2767,0.25079 -0.60934,0.39032 -0.7392,0.31006 -0.34301,-0.21199 -1.00667,0.41657 -1.00667,0.95344 0,0.25292 0.30514,0.90951 0.6781,1.45909 0.4181,0.61611 0.58374,1.09359 0.43201,1.24533 -0.15174,0.15174 -0.30688,0.0877 -0.40462,-0.16701 z m -5.99715,-5.19017 c 0,-0.59035 -0.20994,-0.60673 -1.4197,-0.11079 -0.46239,0.18955 -0.48146,0.0951 -0.30125,-1.49134 0.20883,-1.83848 0.49024,-2.4047 1.0822,-2.17755 0.2095,0.0804 0.56302,-0.005 0.78562,-0.18972 0.58901,-0.48883 1.05602,0.0414 0.67067,0.76139 -0.16867,0.31517 -0.18913,0.60374 -0.049,0.69038 0.41723,0.25786 1.36387,-0.24576 1.69312,-0.90074 0.40832,-0.81226 1.05289,-1.05 0.93332,-0.34423 -0.0482,0.28477 0.0807,0.72067 0.28651,0.96868 0.33112,0.39897 0.30826,0.46816 -0.19845,0.60067 -0.31498,0.0824 -0.57268,0.31446 -0.57268,0.51577 0,0.20131 -0.20836,0.3698 -0.46302,0.37443 -0.64134,0.0117 -1.30791,0.56539 -1.42738,1.18577 -0.14534,0.75471 -1.02002,0.85528 -1.02002,0.11728 z m 8.8198,-0.58848 c -0.084,-0.13592 -0.4851,-0.18065 -0.89132,-0.0994 -0.58185,0.11637 -0.82708,0.0127 -1.15555,-0.48865 -0.22933,-0.35 -0.35066,-0.80915 -0.26962,-1.02034 0.081,-0.21118 0.018,-0.46391 -0.14007,-0.5616 -0.27697,-0.17118 0.61005,-1.74001 1.10168,-1.94847 0.11439,-0.0485 0.20799,-0.2696 0.20799,-0.49133 0,-0.27866 0.14297,-0.34549 0.46302,-0.21646 0.25466,0.10267 0.90259,0.24922 1.43984,0.32567 0.97518,0.13876 0.97609,0.14009 0.54249,0.80184 -0.40892,0.6241 -0.40416,0.68793 0.0815,1.09171 0.30979,0.25755 0.48106,0.67435 0.42876,1.04346 -0.063,0.44494 0.0678,0.6551 0.47381,0.76128 0.52848,0.1382 0.53351,0.16557 0.0871,0.47355 -0.62087,0.42834 -2.17484,0.64393 -2.36963,0.32875 z m -7.5493,-3.13167 c 0.099,-0.67472 0.0317,-0.76631 -0.5634,-0.76631 -0.37173,0 -0.73106,0.0893 -0.79852,0.19844 -0.0674,0.10914 -0.51894,0.19843 -1.00331,0.19843 -0.81405,0 -0.89299,-0.0758 -1.04344,-1.00139 -0.15794,-0.97161 0.0784,-1.533 0.41571,-0.9873 0.30351,0.4911 1.35437,0.27819 1.93758,-0.39256 0.46859,-0.53893 0.81761,-0.66146 1.88418,-0.66146 0.71998,0 1.38263,-0.11906 1.47257,-0.26458 0.24241,-0.39223 0.66146,-0.32057 0.66146,0.11312 0,0.20773 0.38695,0.68266 0.85989,1.0554 l 0.8599,0.6777 -0.71829,0.003 c -0.44541,0.002 -0.82589,0.20397 -1.0015,0.5321 -0.1645,0.30737 -0.55399,0.52917 -0.92925,0.52917 -0.39117,0 -0.8113,0.25219 -1.0649,0.63924 -0.64105,0.97836 -1.10251,1.0389 -0.96868,0.12707 z"
       id="path8" />
    <path
       style="fill:#000000;fill-opacity:1;stroke:none;stroke-width:0.264583;stroke-opacity:1"
       d="m 52.463375,111.5958 c -5.626764,-4.04188 -10.942053,-8.51727 -15.883229,-13.373406 -3.996876,-3.92809 -7.821753,-8.217407 -9.966804,-13.394632 -1.072526,-2.588613 -1.703603,-5.379218 -1.66015,-8.180885 0.04345,-2.801667 0.778796,-5.613835 2.27252,-7.984492 1.536084,-2.437885 3.865031,-4.36723 6.546133,-5.422943 2.681101,-1.055713 5.700241,-1.232236 8.486105,-0.496165 2.785863,0.73607 5.323783,2.380859 7.133505,4.623121 1.809723,2.242262 2.881721,5.070192 3.013138,7.948658"
       id="path16-14"
       inkscape:path-effect="#path-effect16-1"
       inkscape:original-d="M 52.463375,111.5958 C 47.224892,107.7293 41.818628,102.46307 36.580146,98.222394 31.341663,93.981719 30.498327,78.827253 27.225712,68.662385 23.953097,58.497514 43.269867,72.633734 52.404593,75.315056"
       sodipodi:nodetypes="cssc"
       transform="matrix(0.0723027,0,0,0.05296275,22.033616,259.90951)" />
    <path
       style="fill:#000000;fill-opacity:1;stroke:none;stroke-width:0.264583;stroke-opacity:1"
       d="M 52.455107,111.59167 C 46.832642,107.54904 41.520307,103.0752 36.580146,98.222394 32.58168,94.294629 28.754049,90.0063 26.607808,84.828586 25.534688,82.239729 24.90348,79.448542 24.94777,76.646435 c 0.04429,-2.802107 0.781521,-5.614559 2.277942,-7.98405 1.535877,-2.431967 3.862262,-4.355763 6.539354,-5.407696 2.677092,-1.051932 5.690825,-1.226476 8.471458,-0.490632 2.780633,0.735844 5.313555,2.378209 7.11992,4.616607 1.806366,2.238399 2.876684,5.06107 3.008613,7.934392"
       id="path16-1-6"
       inkscape:path-effect="#path-effect16-8-2"
       inkscape:original-d="M 52.455107,111.59167 C 47.216624,107.72517 41.818628,102.46307 36.580146,98.222394 31.341663,93.981719 30.498327,78.827253 27.225712,68.662385 23.953097,58.497514 43.230331,72.633734 52.365057,75.315056"
       transform="matrix(-0.0723027,0,0,0.05296275,29.608746,259.90951)"
       sodipodi:nodetypes="cssc" />
    <text
       xml:space="preserve"
       style="font-style:normal;font-variant:normal;font-weight:normal;font-stretch:normal;font-size:1.4876px;font-family:Impact;-inkscape-font-specification:'Impact, Normal';font-variant-ligatures:normal;font-variant-caps:normal;font-variant-numeric:normal;font-variant-east-asian:normal;text-align:start;letter-spacing:0.619836px;writing-mode:lr-tb;direction:ltr;text-anchor:start;fill:none;fill-opacity:1;stroke:#000000;stroke-width:0.123966;stroke-opacity:1"
       x="36.49966"
       y="165.28477"
       id="text16-0"
       transform="scale(0.61495631,1.6261318)"><tspan
         sodipodi:role="line"
         id="tspan16-7"
         style="font-style:italic;font-variant:normal;font-weight:normal;font-stretch:normal;font-size:1.4876px;font-family:Georgia;-inkscape-font-specification:'Georgia, Italic';font-variant-ligatures:normal;font-variant-caps:normal;font-variant-numeric:normal;font-variant-east-asian:normal;stroke-width:0.123966"
         x="36.49966"
         y="165.28477">G &amp; G</tspan></text>
  </g>
</svg>
