<?xml version="1.0" encoding="UTF-8" standalone="no"?>
<!-- Created with Inkscape (http://www.inkscape.org/) -->

<svg
   width="210mm"
   height="297mm"
   viewBox="0 0 210 297"
   version="1.1"
   id="svg1"
   inkscape:version="1.4.2 (f4327f4, 2025-05-13)"
   sodipodi:docname="TIMBRO.svg"
   xmlns:inkscape="http://www.inkscape.org/namespaces/inkscape"
   xmlns:sodipodi="http://sodipodi.sourceforge.net/DTD/sodipodi-0.dtd"
   xmlns:xlink="http://www.w3.org/1999/xlink"
   xmlns="http://www.w3.org/2000/svg"
   xmlns:svg="http://www.w3.org/2000/svg">
  <sodipodi:namedview
     id="namedview1"
     pagecolor="#ffffff"
     bordercolor="#000000"
     borderopacity="0.25"
     inkscape:showpageshadow="2"
     inkscape:pageopacity="0.0"
     inkscape:pagecheckerboard="0"
     inkscape:deskcolor="#d1d1d1"
     inkscape:document-units="mm"
     inkscape:zoom="4.0668163"
     inkscape:cx="157.12537"
     inkscape:cy="1091.3943"
     inkscape:window-width="1920"
     inkscape:window-height="1009"
     inkscape:window-x="1912"
     inkscape:window-y="-8"
     inkscape:window-maximized="1"
     inkscape:current-layer="layer1" />
  <defs
     id="defs1" />
  <g
     inkscape:label="Livello 1"
     inkscape:groupmode="layer"
     id="layer1">
    <path
       id="path3"
       style="fill:none;fill-opacity:1;stroke:#000000;stroke-width:0.274463;stroke-opacity:1"
       d="M 50.354156,272 A 24.862765,24.862769 0 0 1 25.491376,296.86277 24.862765,24.862769 0 0 1 0.62861112,272 24.862765,24.862769 0 0 1 25.491376,247.13723 24.862765,24.862769 0 0 1 50.354156,272 Z" />
    <path
       id="path3-8"
       style="fill:none;fill-opacity:1;stroke:#000000;stroke-width:0.252506;stroke-opacity:1"
       d="M 48.365117,272 A 22.873742,22.87375 0 0 1 25.491363,294.87375 22.873742,22.87375 0 0 1 2.6176331,272 22.873742,22.87375 0 0 1 25.491363,249.12625 22.873742,22.87375 0 0 1 48.365117,272 Z" />
    <path
       id="path3-8-8"
       style="fill:none;fill-opacity:1;stroke:#000000;stroke-width:0.197613;stroke-opacity:1"
       d="M 25.491379,289.90119 A 17.901198,17.9012 0 0 1 7.5901866,271.99999 17.901198,17.9012 0 0 1 25.491379,254.09881 17.901198,17.9012 0 0 1 43.392574,271.99999 17.901198,17.9012 0 0 1 25.491379,289.90119 Z" />
    <path
       id="path3-8-8-3"
       style="fill:none;fill-opacity:1;stroke:none;stroke-width:0.197613;stroke-opacity:1"
       d="M 57.970079,265 A 17.9012,17.901198 0 0 0 75.871281,282.9012 17.9012,17.901198 0 0 0 93.772466,265 17.9012,17.901198 0 0 0 75.871281,247.09881 17.9012,17.901198 0 0 0 57.970079,265 Z" />
    <text
       xml:space="preserve"
       style="font-style:normal;font-variant:normal;font-weight:normal;font-stretch:normal;font-size:3.175px;font-family:Impact;-inkscape-font-specification:'Impact, Normal';font-variant-ligatures:normal;font-variant-caps:normal;font-variant-numeric:normal;font-variant-east-asian:normal;text-align:start;letter-spacing:1.32292px;writing-mode:lr-tb;direction:ltr;text-anchor:start;fill:none;fill-opacity:1;stroke:#000000;stroke-width:0.264583;stroke-opacity:1"
       id="text6-5"
       transform="matrix(1.1200306,0,0,1.3157959,-3.1184351,-81.0224)"><textPath
         xlink:href="#path3-8-8"
         startOffset="50%"
         id="textPath12"
         style="font-style:normal;font-variant:normal;font-weight:normal;font-stretch:normal;font-size:3.175px;font-family:Impact;-inkscape-font-specification:'Impact, Normal';font-variant-ligatures:normal;font-variant-caps:normal;font-variant-numeric:normal;font-variant-east-asian:normal;text-align:center;letter-spacing:1.32292px;direction:ltr;text-anchor:middle;stroke-width:0.264583">GIULIA &amp; GIOVANNI</textPath></text>
    <text
       xml:space="preserve"
       style="font-style:normal;font-variant:normal;font-weight:normal;font-stretch:normal;font-size:3.175px;font-family:Impact;-inkscape-font-specification:'Impact, Normal';font-variant-ligatures:normal;font-variant-caps:normal;font-variant-numeric:normal;font-variant-east-asian:normal;text-align:start;letter-spacing:1.32292px;writing-mode:lr-tb;direction:ltr;text-anchor:start;fill:none;fill-opacity:1;stroke:none;stroke-width:0.264583;stroke-opacity:1"
       id="text6-5-8"
       x="81.407059"
       y="0"
       transform="rotate(-48.04157,65.722822,277.00363)"><textPath
         xlink:href="#path3-8-8-3"
         id="textPath13"
         style="font-size:3.175px;text-align:start;letter-spacing:1.32292px;direction:ltr;text-anchor:start;stroke:none">ROMAITALIA</textPath></text>
    <text
       xml:space="preserve"
       style="font-style:normal;font-variant:normal;font-weight:normal;font-stretch:normal;font-size:3.175px;font-family:Impact;-inkscape-font-specification:'Impact, Normal';font-variant-ligatures:normal;font-variant-caps:normal;font-variant-numeric:normal;font-variant-east-asian:normal;text-align:start;letter-spacing:1.32292px;writing-mode:lr-tb;direction:ltr;text-anchor:start;fill:none;fill-opacity:1;stroke:#000000;stroke-width:0.264583;stroke-opacity:1"
       id="text6-5-8-9"
       x="81.407059"
       y="0"
       transform="matrix(0.90112403,-1.1257164,1.0022609,1.0121216,-308.44244,84.336174)"><textPath
         xlink:href="#path3-8-8-3"
         id="textPath13-3"
         style="font-size:3.175px;text-align:start;letter-spacing:1.32292px;direction:ltr;text-anchor:start">ROMA  ITALIA</textPath></text>
    <path
       style="fill:#000000;stroke-width:0.0391559"
       d="m 4.0145297,275.9981 c -0.018976,-0.006 -0.033072,-0.0244 -0.03508,-0.0451 -6.43e-4,-0.007 0.023848,-0.15781 0.188828,-1.1665 0.016832,-0.10292 0.032168,-0.19689 0.034072,-0.20881 l 0.00344,-0.0217 -0.00901,-0.009 c -0.00496,-0.005 -0.020424,-0.0207 -0.034376,-0.035 -0.0326,-0.0335 -0.1122369,-0.11482 -0.119008,-0.12158 -0.00288,-0.003 -0.01808,-0.0185 -0.033816,-0.0347 -0.015736,-0.0162 -0.039736,-0.0409 -0.053328,-0.0548 -0.04165,-0.0426 -0.12363,-0.12644 -0.146971,-0.15023 -0.01216,-0.0124 -0.03265,-0.0333 -0.04552,-0.0466 -0.01287,-0.0132 -0.02692,-0.0276 -0.03122,-0.0319 -0.0043,-0.004 -0.115972,-0.11863 -0.248178,-0.25395 -0.231175,-0.23664 -0.240544,-0.24642 -0.24485,-0.25561 -0.0077,-0.0163 -0.0071,-0.0338 0.0015,-0.0492 0.0048,-0.009 0.01503,-0.0177 0.02361,-0.0211 0.0053,-0.002 0.08748,-0.0151 0.297456,-0.0471 0.159568,-0.0243 0.4578071,-0.0698 0.6627546,-0.1011 0.2049466,-0.0313 0.3730759,-0.0573 0.3736199,-0.0579 5.536e-4,-5.1e-4 0.1308264,-0.27726 0.2895149,-0.61491 0.1586886,-0.33764 0.2924277,-0.62204 0.2971973,-0.63201 0.010504,-0.022 0.014992,-0.0274 0.027912,-0.0341 0.00908,-0.005 0.010736,-0.005 0.021048,-0.005 0.010304,0 0.011968,2.6e-4 0.021048,0.005 0.00568,0.003 0.011824,0.007 0.014552,0.0106 0.00256,0.003 0.00889,0.0142 0.014008,0.0249 0.00512,0.0107 0.1388687,0.29513 0.2972093,0.63203 0.1583397,0.33689 0.2883301,0.61299 0.2888669,0.61354 5.312e-4,5.1e-4 0.1566614,0.0247 0.3469441,0.0538 0.9704224,0.148 0.9794624,0.1494 0.9868751,0.15231 0.00858,0.003 0.018824,0.0125 0.023608,0.0211 0.00862,0.0154 0.00914,0.0329 0.00152,0.0492 -0.00432,0.009 -0.01376,0.0191 -0.2466216,0.25748 -0.1331791,0.13635 -0.2445664,0.2503 -0.247528,0.25322 -0.0052,0.005 -0.068551,0.0699 -0.1198392,0.12243 -0.029152,0.0299 -0.076423,0.0783 -0.1573774,0.1612 -0.015736,0.0161 -0.039152,0.0401 -0.052024,0.0534 -0.012872,0.0132 -0.0264,0.0271 -0.030056,0.0307 -0.00368,0.004 -0.02648,0.027 -0.050728,0.0518 -0.024248,0.0248 -0.048152,0.0492 -0.053128,0.0542 l -0.00905,0.009 0.029648,0.18145 c 0.016304,0.0998 0.067384,0.41227 0.1134977,0.69436 0.064592,0.39509 0.083713,0.51463 0.083253,0.52042 -0.00208,0.0258 -0.021664,0.046 -0.046136,0.0475 -0.0076,5.1e-4 -0.011704,-3e-5 -0.017152,-0.002 -0.00568,-0.002 -0.4356323,-0.23901 -1.1313437,-0.62347 -0.032432,-0.0179 -0.05956,-0.0326 -0.060272,-0.0326 -7.088e-4,0 -0.00488,0.002 -0.00931,0.005 -0.03264,0.0189 -1.1760995,0.64933 -1.181185,0.65122 -0.00768,0.003 -0.021056,0.003 -0.028888,5.2e-4 z m 0.6449429,-0.45639 c 0.305206,-0.1685 0.5580092,-0.30733 0.5617835,-0.3085 0.00872,-0.003 0.017072,-0.003 0.025824,1e-5 0.00376,10e-4 0.04648,0.024 0.094856,0.0507 0.5070214,0.27995 1.0228588,0.56469 1.0271516,0.56699 l 0.00536,0.003 -0.00104,-0.006 c -0.00112,-0.007 -0.1626694,-0.99653 -0.1721453,-1.05476 -0.00312,-0.0192 -0.013712,-0.084 -0.023536,-0.14411 -0.016672,-0.10196 -0.017776,-0.10982 -0.016536,-0.11747 0.00216,-0.0132 0.00632,-0.0207 0.019176,-0.0343 0.00648,-0.007 0.059168,-0.0609 0.1171081,-0.12015 0.057944,-0.0592 0.1164512,-0.11905 0.1300191,-0.13298 0.024088,-0.0247 0.050656,-0.0519 0.1020978,-0.10459 0.013976,-0.0143 0.037096,-0.038 0.051376,-0.0526 0.01428,-0.0146 0.037376,-0.0383 0.05132,-0.0525 0.013944,-0.0143 0.03884,-0.0399 0.05532,-0.0569 0.01648,-0.017 0.03172,-0.0326 0.033872,-0.0347 0.00216,-0.002 0.015024,-0.0152 0.028616,-0.0292 0.013592,-0.014 0.093123,-0.0955 0.1767356,-0.1811 0.083613,-0.0856 0.1515063,-0.15577 0.1508735,-0.15599 -6.424e-4,-2.1e-4 -0.098015,-0.0152 -0.216405,-0.0332 -0.1183904,-0.0181 -0.2451048,-0.0374 -0.281587,-0.043 -0.03648,-0.005 -0.2196769,-0.0335 -0.4070973,-0.0621 -0.1874212,-0.0286 -0.3444169,-0.0529 -0.3488785,-0.0542 -0.010352,-0.003 -0.020664,-0.0106 -0.026664,-0.0199 -0.00256,-0.004 -0.1300304,-0.27418 -0.283287,-0.60041 -0.1532577,-0.32623 -0.2790664,-0.59315 -0.2795752,-0.59315 -5.096e-4,0 -0.1263184,0.26692 -0.2795766,0.59315 -0.1532582,0.32623 -0.2807398,0.59642 -0.2832933,0.60041 -0.006,0.009 -0.016312,0.0171 -0.026664,0.0199 -0.00448,0.001 -0.1614573,0.0256 -0.3488785,0.0542 -0.1874212,0.0286 -0.356568,0.0543 -0.375882,0.0573 -0.01931,0.003 -0.146029,0.0223 -0.281587,0.043 -0.135559,0.0207 -0.246986,0.0378 -0.247616,0.038 -6.2e-4,2.1e-4 0.06697,0.0701 0.150223,0.15532 0.154201,0.15783 0.182982,0.18732 0.229936,0.2356 0.01461,0.015 0.02899,0.0298 0.03195,0.0328 0.003,0.003 0.01647,0.0169 0.03002,0.0308 0.01355,0.0139 0.04863,0.0499 0.07796,0.0798 0.02933,0.03 0.06474,0.0662 0.078688,0.0805 0.0574,0.0589 0.1266432,0.1298 0.212653,0.21766 0.050072,0.0512 0.093126,0.0958 0.09567,0.0993 0.00536,0.007 0.00877,0.0163 0.00982,0.0261 5.536e-4,0.005 -0.00664,0.0522 -0.031288,0.2028 -0.036992,0.2264 -0.038776,0.23733 -0.042984,0.26294 -0.00176,0.0105 -0.03332,0.20414 -0.070216,0.43027 -0.036896,0.22613 -0.06756,0.41403 -0.068152,0.41755 l -0.00112,0.006 0.00536,-0.003 c 0.00296,-0.002 0.2550519,-0.14071 0.5602587,-0.30921 z"
       id="path13" />
    <path
       style="fill:#000000;fill-opacity:1;stroke:none;stroke-width:0.039;stroke-dasharray:none;stroke-opacity:1"
       d="m 44.534183,273.91083 c -0.01898,-0.006 -0.03307,-0.0244 -0.03508,-0.0451 -6.42e-4,-0.007 0.02385,-0.15781 0.188828,-1.16649 0.01683,-0.10292 0.03217,-0.19689 0.03407,-0.20881 l 0.0034,-0.0217 -0.009,-0.009 c -0.005,-0.005 -0.02042,-0.0207 -0.03438,-0.035 -0.0326,-0.0335 -0.112236,-0.11482 -0.119008,-0.12158 -0.0029,-0.003 -0.01808,-0.0185 -0.03382,-0.0347 -0.01574,-0.0162 -0.03974,-0.0409 -0.05333,-0.0548 -0.04165,-0.0426 -0.123629,-0.12645 -0.146971,-0.15024 -0.01216,-0.0124 -0.03265,-0.0333 -0.04552,-0.0466 -0.01287,-0.0132 -0.02692,-0.0276 -0.03122,-0.0319 -0.0043,-0.004 -0.115972,-0.11862 -0.248178,-0.25395 -0.231174,-0.23663 -0.240543,-0.24641 -0.244849,-0.2556 -0.0077,-0.0163 -0.0071,-0.0338 0.0015,-0.0492 0.0048,-0.009 0.01503,-0.0177 0.02361,-0.0211 0.0053,-0.002 0.08748,-0.0151 0.297456,-0.0471 0.159568,-0.0243 0.457807,-0.0698 0.662754,-0.1011 0.204947,-0.0313 0.373076,-0.0573 0.37362,-0.0578 5.54e-4,-5.1e-4 0.130826,-0.27727 0.289515,-0.61491 0.158688,-0.33764 0.292428,-0.62205 0.297197,-0.63201 0.0105,-0.022 0.01499,-0.0274 0.02791,-0.0341 0.0091,-0.005 0.01074,-0.005 0.02105,-0.005 0.0103,0 0.01197,2.6e-4 0.02105,0.005 0.0057,0.003 0.01182,0.007 0.01455,0.0106 0.0026,0.003 0.0089,0.0142 0.01401,0.0249 0.0051,0.0107 0.138869,0.29512 0.297209,0.63202 0.15834,0.3369 0.28833,0.613 0.288867,0.61354 5.32e-4,5.2e-4 0.156662,0.0247 0.346944,0.0538 0.970423,0.14801 0.979463,0.14941 0.986875,0.15232 0.0086,0.003 0.01882,0.0125 0.02361,0.0211 0.0086,0.0155 0.0091,0.0329 0.0015,0.0492 -0.0043,0.009 -0.01376,0.0191 -0.246622,0.25748 -0.133179,0.13635 -0.244566,0.2503 -0.247528,0.25322 -0.0052,0.005 -0.06855,0.0698 -0.119839,0.12242 -0.02915,0.0299 -0.07642,0.0783 -0.157378,0.1612 -0.01574,0.0161 -0.03915,0.0401 -0.05202,0.0533 -0.01287,0.0132 -0.0264,0.0271 -0.03006,0.0308 -0.0037,0.004 -0.02648,0.027 -0.05073,0.0518 -0.02425,0.0248 -0.04815,0.0492 -0.05313,0.0542 l -0.0091,0.009 0.02965,0.18146 c 0.0163,0.0998 0.06738,0.41227 0.113498,0.69436 0.06459,0.39509 0.08371,0.51463 0.08325,0.52042 -0.0021,0.0258 -0.02166,0.046 -0.04614,0.0475 -0.0076,5.1e-4 -0.0117,-3e-5 -0.01715,-0.002 -0.0057,-0.002 -0.435632,-0.23901 -1.131344,-0.62347 -0.03243,-0.0179 -0.05956,-0.0326 -0.06027,-0.0326 -7.09e-4,0 -0.0049,0.002 -0.0093,0.005 -0.03264,0.0189 -1.176099,0.64933 -1.181185,0.65122 -0.0077,0.003 -0.02106,0.003 -0.02889,5.1e-4 z m 0.644943,-0.45638 c 0.305206,-0.1685 0.558009,-0.30733 0.561783,-0.30851 0.0087,-0.003 0.01707,-0.003 0.02582,1e-5 0.0038,10e-4 0.04648,0.024 0.09486,0.0507 0.507022,0.27996 1.022859,0.5647 1.027152,0.56699 l 0.0054,0.003 -10e-4,-0.006 c -0.0011,-0.007 -0.162669,-0.99652 -0.172145,-1.05475 -0.0031,-0.0192 -0.01371,-0.084 -0.02354,-0.14411 -0.01667,-0.10196 -0.01778,-0.10982 -0.01654,-0.11747 0.0022,-0.0132 0.0063,-0.0207 0.01918,-0.0343 0.0065,-0.007 0.05917,-0.0609 0.117108,-0.12015 0.05794,-0.0592 0.116451,-0.11906 0.130019,-0.13298 0.02409,-0.0247 0.05066,-0.0519 0.102098,-0.10459 0.01398,-0.0143 0.0371,-0.038 0.05138,-0.0526 0.01428,-0.0146 0.03738,-0.0383 0.05132,-0.0525 0.01394,-0.0143 0.03884,-0.0399 0.05532,-0.0569 0.01648,-0.017 0.03172,-0.0326 0.03387,-0.0347 0.0022,-0.002 0.01502,-0.0152 0.02862,-0.0292 0.01359,-0.014 0.09312,-0.0955 0.176735,-0.1811 0.08361,-0.0856 0.151507,-0.15578 0.150874,-0.15599 -6.43e-4,-2.1e-4 -0.09802,-0.0152 -0.216405,-0.0332 -0.118391,-0.0181 -0.245105,-0.0374 -0.281587,-0.043 -0.03648,-0.005 -0.219677,-0.0335 -0.407098,-0.0621 -0.187421,-0.0286 -0.344416,-0.0529 -0.348878,-0.0542 -0.01035,-0.003 -0.02066,-0.0105 -0.02666,-0.0199 -0.0026,-0.004 -0.13003,-0.27418 -0.283287,-0.60041 -0.153258,-0.32623 -0.279066,-0.59315 -0.279575,-0.59315 -5.1e-4,0 -0.126319,0.26692 -0.279577,0.59315 -0.153258,0.32623 -0.28074,0.59642 -0.283293,0.60041 -0.006,0.009 -0.01631,0.0171 -0.02666,0.0199 -0.0045,10e-4 -0.161457,0.0256 -0.348879,0.0542 -0.187421,0.0286 -0.356568,0.0543 -0.375882,0.0573 -0.01931,0.003 -0.146029,0.0223 -0.281587,0.043 -0.135558,0.0207 -0.246985,0.0378 -0.247616,0.038 -6.2e-4,2.1e-4 0.06697,0.0701 0.150223,0.15531 0.154202,0.15784 0.182982,0.18732 0.229936,0.23561 0.01461,0.015 0.02899,0.0298 0.03195,0.0328 0.003,0.003 0.01647,0.0169 0.03002,0.0308 0.01355,0.0139 0.04863,0.0499 0.07796,0.0798 0.02933,0.03 0.06474,0.0662 0.07869,0.0805 0.0574,0.0589 0.126644,0.1298 0.212653,0.21766 0.05007,0.0511 0.09313,0.0958 0.09567,0.0992 0.0054,0.007 0.0088,0.0163 0.0098,0.0261 5.54e-4,0.005 -0.0066,0.0522 -0.03129,0.2028 -0.03699,0.2264 -0.03878,0.23733 -0.04298,0.26294 -0.0018,0.0105 -0.03332,0.20414 -0.07022,0.43027 -0.0369,0.22612 -0.06756,0.41402 -0.06815,0.41755 l -0.0011,0.006 0.0054,-0.003 c 0.003,-0.002 0.255052,-0.14071 0.560259,-0.30921 z"
       id="path13-8" />
    <path
       style="fill:#000000;stroke-width:0.278587"
       d="m 25.427864,280.13841 c -0.05748,-0.0398 -0.112726,-0.2192 -0.178951,-0.58134 -0.015,-0.0812 -0.02799,-0.14882 -0.029,-0.15032 -0.0012,-10e-4 -0.05623,0.0165 -0.122715,0.0398 -0.955168,0.33625 -1.923206,0.67243 -1.936252,0.67243 -0.01005,0 -0.0225,-0.009 -0.02974,-0.0213 -0.02825,-0.0458 -0.01005,-0.34065 0.03324,-0.50868 0.02674,-0.10639 0.08348,-0.24102 0.128461,-0.30551 0.12297,-0.17562 0.746397,-0.60235 1.662424,-1.13782 l 0.07124,-0.0417 -0.0014,-0.0425 c -8.74e-4,-0.0235 -0.01749,-0.16813 -0.03549,-0.32165 -0.09098,-0.7465 -0.216191,-1.93776 -0.227939,-2.16843 -0.0049,-0.089 -0.01005,-0.64067 -0.015,-1.22584 -0.0026,-0.58518 -0.01005,-1.06712 -0.01245,-1.07099 -0.0075,-0.009 -1.12782,-0.0367 -1.155987,-0.0287 -0.01749,0.005 -0.02499,0.0173 -0.03575,0.061 -0.0225,0.0843 -0.08323,0.22287 -0.111975,0.25741 -0.02923,0.0353 -0.05373,0.0392 -0.07724,0.0125 -0.0225,-0.0247 -0.03349,-0.075 -0.03973,-0.16967 -0.0026,-0.0432 -0.0075,-0.0785 -0.01005,-0.0784 -0.015,3.4e-4 -0.155708,0.0483 -0.160457,0.0545 -0.0025,0.004 -0.01245,0.0368 -0.02,0.0729 -0.01999,0.0828 -0.05774,0.17119 -0.08573,0.19615 -0.02824,0.0253 -0.06249,0.0245 -0.08448,-0.002 -0.02499,-0.0292 -0.03399,-0.0625 -0.04074,-0.1356 -0.0025,-0.0341 -0.0075,-0.062 -0.01245,-0.062 -0.0025,0 -0.173702,0.0508 -0.378573,0.11298 -0.361601,0.10961 -0.380446,0.1165 -0.636802,0.23254 -0.347806,0.15745 -0.662347,0.29792 -0.68534,0.30605 -0.02,0.007 -0.0225,0.016 -0.03224,0.0817 -0.01005,0.0655 -0.04524,0.1897 -0.06697,0.22908 -0.03774,0.0679 -0.09248,0.0939 -0.138721,0.0658 -0.02574,-0.0157 -0.04974,-0.0801 -0.06024,-0.1623 -0.005,-0.0451 -0.01245,-0.0744 -0.01749,-0.072 -0.0049,0.002 -0.08623,0.0387 -0.180951,0.0811 l -0.172204,0.0771 -0.01245,0.0977 c -0.02599,0.18577 -0.07672,0.28346 -0.14721,0.28346 -0.05923,0 -0.100981,-0.0726 -0.116476,-0.20237 -0.0025,-0.0247 -0.01005,-0.0452 -0.015,-0.0452 -0.005,0 -0.08322,0.0325 -0.172952,0.0723 -0.863766,0.38237 -1.650929,0.71881 -1.857922,0.79407 -0.135466,0.0493 -0.181702,0.0391 -0.206444,-0.0455 -0.02698,-0.0929 0.01749,-0.30561 0.113715,-0.53131 0.09198,-0.2179 0.13071,-0.26857 0.340208,-0.44394 0.46155,-0.3864 1.031071,-0.82069 1.4773,-1.12655 0.08973,-0.0614 0.164207,-0.11303 0.165956,-0.11472 0.0018,-0.002 -0.0026,-0.0661 -0.01245,-0.14307 -0.01245,-0.11842 -0.01245,-0.14125 -0.0025,-0.14808 0.225188,-0.15692 0.605685,-0.38395 0.786712,-0.46938 0.08898,-0.0419 0.262404,-0.11197 0.266328,-0.1075 8.75e-4,10e-4 0.0025,0.0544 0.005,0.1186 0.0014,0.0642 0.0025,0.11663 0.0049,0.11663 0.0026,0 0.66567,-0.40768 0.917478,-0.56413 0.12222,-0.076 0.286497,-0.17793 0.364951,-0.22655 0.07848,-0.0486 0.143205,-0.0888 0.143955,-0.0893 6e-4,-5e-4 -0.005,-0.0737 -0.015,-0.1627 -0.01245,-0.12469 -0.01245,-0.16342 -0.005,-0.16897 0.213443,-0.15217 0.645701,-0.40572 0.836448,-0.49069 0.105481,-0.047 0.209695,-0.0881 0.22369,-0.0881 0.0015,0 0.0025,0.0571 0.0049,0.12687 l 0.0024,0.12687 0.171953,-0.10842 c 0.228938,-0.14441 0.46755,-0.29406 0.641828,-0.40276 0.07848,-0.0489 0.174702,-0.109 0.213941,-0.13347 l 0.07123,-0.0445 -0.0049,-0.93701 c -0.0075,-1.48158 -0.005,-1.7801 0.0075,-1.9084 0.04349,-0.44725 0.135465,-0.91547 0.270451,-1.37615 0.136215,-0.46468 0.305067,-0.80431 0.439856,-0.88477 0.07947,-0.0474 0.179201,-0.0145 0.258055,0.085 0.195947,0.24745 0.398617,0.96352 0.479671,1.695 0.04848,0.43758 0.05474,0.65062 0.06097,2.06898 0.005,1.04698 0.0075,1.25472 0.01749,1.25472 0.01245,0 0.129721,0.0717 0.771742,0.47432 0.185448,0.11625 0.340706,0.21138 0.34523,0.21138 0.005,0 0.0075,-0.0492 0.01005,-0.12102 5.75e-4,-0.0666 0.0024,-0.12235 0.005,-0.12395 0.005,-0.006 0.197696,0.0737 0.295395,0.12191 0.154458,0.0762 0.396193,0.21615 0.583792,0.33788 0.09372,0.0608 0.173703,0.11412 0.177703,0.11843 0.005,0.006 -0.0075,0.1755 -0.0225,0.31331 -8.76e-4,0.008 0.04098,0.0402 0.103471,0.0795 0.151958,0.0959 1.11075,0.68914 1.226967,0.75907 l 0.09873,0.0593 v -0.11982 c 0,-0.0659 0.0014,-0.11985 0.0025,-0.11985 0.0018,0 0.04649,0.017 0.09923,0.0375 0.221939,0.0868 0.498416,0.23917 0.826776,0.45536 0.156708,0.10312 0.142965,0.0747 0.12396,0.25892 -0.0075,0.0652 -0.01245,0.11917 -0.01005,0.12 0.0011,8.5e-4 0.06974,0.0479 0.152958,0.10459 0.527232,0.35986 1.486398,1.10244 1.662375,1.28702 0.08397,0.0882 0.1857,0.29671 0.245185,0.50316 0.05823,0.20197 0.06148,0.30975 0.01245,0.36904 -0.03474,0.0411 -0.07373,0.0359 -0.258282,-0.0345 -0.236685,-0.0902 -0.773066,-0.31912 -1.563877,-0.66737 -0.209693,-0.0923 -0.38617,-0.16569 -0.392218,-0.16304 -0.005,0.003 -0.01005,0.0168 -0.01005,0.0313 -1.5e-4,0.0351 -0.01999,0.11418 -0.03624,0.1521 -0.01749,0.04 -0.04473,0.0601 -0.07948,0.0601 -0.07673,0 -0.12147,-0.0952 -0.158207,-0.33649 l -0.0075,-0.046 -0.167703,-0.0754 c -0.09222,-0.0414 -0.173954,-0.0776 -0.181202,-0.0804 -0.01005,-0.004 -0.015,0.006 -0.01749,0.0547 -0.0075,0.082 -0.02,0.12543 -0.04449,0.15943 -0.01749,0.0237 -0.02775,0.0289 -0.05724,0.0289 -0.07649,0 -0.126465,-0.0904 -0.163705,-0.29523 l -0.015,-0.0809 -0.229939,-0.10278 c -0.126465,-0.0565 -0.335309,-0.1502 -0.464199,-0.20817 -0.12897,-0.058 -0.249683,-0.11163 -0.268478,-0.11925 -0.03974,-0.016 -0.746397,-0.2317 -0.759444,-0.2317 -0.005,0 -0.01005,0.017 -0.01005,0.0376 0,0.1447 -0.06899,0.22782 -0.130711,0.15767 -0.02775,-0.0314 -0.06648,-0.12582 -0.08473,-0.20599 l -0.015,-0.0645 -0.06749,-0.0202 c -0.03699,-0.011 -0.07348,-0.0222 -0.08098,-0.0245 -0.015,-0.005 -0.02499,0.029 -0.02499,0.0858 0,0.044 -0.02499,0.1404 -0.0395,0.16005 -0.04624,0.058 -0.11622,-0.0389 -0.183701,-0.25406 -0.01749,-0.0593 -0.02623,-0.0732 -0.04374,-0.0782 -0.0225,-0.007 -0.965614,0.0123 -1.098577,0.0217 l -0.07747,0.005 -3e-4,0.95861 c -5.75e-4,1.09031 -0.0075,1.49652 -0.03249,1.75858 -0.04624,0.49393 -0.132466,1.25313 -0.202696,1.78476 -0.0225,0.17497 -0.03899,0.32122 -0.03524,0.32498 0.0025,0.004 0.05949,0.038 0.124215,0.076 0.609135,0.35878 1.067211,0.65384 1.346536,0.86738 0.213692,0.16337 0.273526,0.23002 0.33536,0.37367 0.06348,0.1476 0.100966,0.35171 0.100966,0.55073 0,0.11547 -0.01005,0.1509 -0.04149,0.1509 -0.0075,0 -0.478919,-0.16227 -1.045391,-0.36062 l -1.029921,-0.36062 -0.05673,0.25348 c -0.06099,0.27306 -0.06948,0.30384 -0.104475,0.38273 -0.05199,0.11685 -0.09348,0.14527 -0.152459,0.10447 z m -2.112204,-0.1765 0.09372,-0.0332 0.005,-0.0521 c 0.005,-0.0658 0.05298,-0.1695 0.10272,-0.22693 0.08298,-0.0955 0.427484,-0.254 1.111299,-0.51127 0.163706,-0.0616 0.345007,-0.12837 0.402691,-0.14835 0.05773,-0.02 0.107715,-0.0389 0.11097,-0.0421 0.0025,-0.003 6e-4,-0.0424 -0.0075,-0.087 -0.0075,-0.0447 -0.02949,-0.20698 -0.05024,-0.3607 -0.01999,-0.15373 -0.03924,-0.28137 -0.04149,-0.28365 -0.0075,-0.008 -0.494517,0.2857 -0.839573,0.50545 -0.423212,0.26952 -0.697288,0.47023 -0.802208,0.58746 -0.07548,0.0844 -0.121711,0.1822 -0.15346,0.32502 -0.02975,0.1335 -0.05049,0.36068 -0.03275,0.36068 0.0025,0 0.04799,-0.015 0.09947,-0.0333 z m 4.448223,-0.0739 c -0.01005,-0.2197 -0.06549,-0.41957 -0.15121,-0.53787 -0.06498,-0.0897 -0.234686,-0.22629 -0.526082,-0.42375 -0.352705,-0.23899 -1.142141,-0.72354 -1.154988,-0.70894 -0.0049,0.004 -0.111721,0.72412 -0.108976,0.72661 8.75e-4,6.9e-4 0.09873,0.0363 0.21794,0.0791 0.610811,0.21962 1.127021,0.43351 1.318844,0.54647 0.110971,0.0653 0.173953,0.15548 0.204695,0.29309 l 0.015,0.0693 0.08298,0.0306 c 0.0455,0.0168 0.08823,0.031 0.09447,0.0316 0.01005,8.3e-4 0.01005,-0.0183 0.0075,-0.10615 z m -3.592428,-0.22603 c 0.392018,-0.13724 0.780713,-0.27308 0.863766,-0.30184 0.08298,-0.0288 0.154208,-0.0559 0.158207,-0.0602 0.005,-0.005 -0.0025,-0.075 -0.015,-0.1615 l -0.02248,-0.15355 -0.02574,0.006 c -0.015,0.003 -0.197447,0.0705 -0.407541,0.149 -0.747097,0.27925 -1.098427,0.43778 -1.182004,0.53336 -0.03974,0.0455 -0.09098,0.15457 -0.09897,0.21129 -0.0049,0.0303 -0.0025,0.0363 0.0075,0.032 0.0075,-0.003 0.332911,-0.11759 0.724929,-0.25485 z m 3.351143,0.15868 c -0.0255,-0.077 -0.08172,-0.15763 -0.13671,-0.19522 -0.105465,-0.0723 -0.346732,-0.18238 -0.743974,-0.33968 -0.324737,-0.12859 -0.790787,-0.30011 -0.815454,-0.30011 -0.01005,0 -0.02,0.0362 -0.03974,0.1533 -0.015,0.0843 -0.02574,0.15453 -0.02499,0.15603 0.0024,0.002 0.295044,0.10517 1.412168,0.49562 0.349006,0.122 0.360827,0.1254 0.363251,0.10505 0.0015,-0.0115 -0.005,-0.0453 -0.015,-0.075 z m -1.892264,-0.35493 c 0.121471,-0.60172 0.270977,-1.65651 0.406291,-2.86787 l 0.0075,-0.0593 -0.07147,-0.0454 c -0.03924,-0.025 -0.09273,-0.0677 -0.118725,-0.095 -0.05549,-0.0582 -0.07123,-0.10312 -0.06224,-0.17709 0.0075,-0.0522 0.07023,-0.20395 0.09773,-0.2323 0.02499,-0.0254 0.07672,-0.0205 0.145215,0.0139 0.05849,0.0294 0.05874,0.0294 0.06099,0.009 0.02799,-0.26337 0.02825,-0.28422 0.03725,-3.18542 0.005,-1.57287 0.0075,-2.86201 0.005,-2.86474 -0.0023,-0.003 -0.04149,-0.0135 -0.08723,-0.024 -0.04549,-0.0105 -0.09597,-0.0263 -0.111975,-0.0352 -0.03699,-0.0205 -0.04274,-0.051 -0.04473,-0.23677 -0.0012,-0.12363 4.9e-5,-0.13717 0.015,-0.1619 0.015,-0.0235 0.02499,-0.0273 0.06622,-0.0299 0.04349,-0.002 0.08648,0.004 0.146206,0.0233 l 0.02,0.007 -0.005,-0.90863 c -0.0025,-0.49975 -0.01005,-0.98577 -0.015,-1.08005 -0.03125,-0.64842 -0.146716,-1.31187 -0.310917,-1.78702 l -0.04173,-0.1204 -0.03949,-0.0192 c -0.14346,-0.0694 -0.279475,-0.0757 -0.400293,-0.0185 -0.07323,0.0348 -0.08298,0.0469 -0.127965,0.16142 -0.160457,0.40888 -0.315739,1.05529 -0.374998,1.55977 -0.02925,0.24858 -0.03125,0.35114 -0.02525,1.23171 l 0.005,0.86504 0.01749,-0.006 c 0.05049,-0.016 0.111975,-0.017 0.136966,-0.002 0.04524,0.0265 0.05399,0.12918 0.0305,0.35667 -0.005,0.0598 -0.01749,0.0693 -0.116221,0.0949 l -0.06324,0.0165 2.51e-4,0.49046 c 1.5e-4,0.26975 0.0024,0.66617 0.005,0.88092 0.0025,0.21475 0.01005,1.24758 0.01749,2.29516 0.0075,1.04759 0.015,1.95613 0.01749,2.01899 0.005,0.10975 0.03699,0.48168 0.04299,0.48946 0.0014,0.002 0.02574,-0.008 0.05373,-0.0222 0.06674,-0.034 0.117465,-0.0366 0.144705,-0.007 0.01245,0.012 0.03649,0.0579 0.05598,0.10211 0.08197,0.18517 0.04774,0.27987 -0.144961,0.39999 -0.03424,0.0213 -0.05598,0.0411 -0.05598,0.0507 2.4e-5,0.0263 0.09848,0.89746 0.13872,1.22885 0.08748,0.718 0.161456,1.25605 0.204944,1.49162 l 0.015,0.0857 -0.005,-0.10001 c -0.01005,-0.16219 -0.005,-1.04304 0.005,-1.28567 0.035,-0.79447 0.09048,-1.28428 0.15271,-1.34818 0.01749,-0.018 0.01749,-0.018 0.03374,0.004 0.05699,0.08 0.107475,0.53733 0.133455,1.20995 0.0075,0.21047 0.01245,1.15611 0.005,1.24847 -0.0018,0.0235 -0.005,0.0964 -0.0075,0.1619 -0.005,0.12659 -0.01749,0.28778 -0.02599,0.34284 -0.01245,0.0783 0.0075,0.0112 0.03374,-0.11989 z m 0.258706,-12.67856 c -0.04049,-0.0668 -0.139965,-0.1862 -0.195947,-0.23512 -0.02724,-0.0238 -0.07124,-0.0546 -0.09773,-0.0686 -0.128716,-0.0677 -0.274176,10e-4 -0.470898,0.2235 -0.05249,0.0592 -0.09597,0.10766 -0.09648,0.10766 -0.0025,10e-6 0.005,-0.18287 0.01005,-0.23799 l 0.0049,-0.0618 0.07548,-0.0688 c 0.191198,-0.1741 0.343108,-0.2325 0.48102,-0.18495 0.07223,0.025 0.18545,0.10875 0.258504,0.1916 l 0.05148,0.0584 0.005,0.1569 c 0.0026,0.0863 0.005,0.15844 0.0026,0.16037 -0.0018,0.002 -0.015,-0.0168 -0.03024,-0.0413 z m 0.18195,9.48698 c 0.01005,-0.10065 0.01749,-0.1892 0.01749,-0.19672 0,-0.0192 -0.11997,-0.0745 -0.153708,-0.0708 -0.02249,0.002 -0.03125,0.0115 -0.05399,0.0551 -0.04424,0.0842 -0.06273,0.15002 -0.05874,0.20805 0.0025,0.0448 0.0075,0.0555 0.04074,0.0925 0.02,0.023 0.06899,0.0636 0.108225,0.0902 0.07023,0.0478 0.07123,0.0481 0.07722,0.0266 0.0025,-0.012 0.01245,-0.10422 0.0225,-0.20488 z m -1.053839,0.17295 c 0.156458,-0.10403 0.178952,-0.18747 0.09597,-0.35657 -0.03574,-0.0729 -0.04724,-0.0857 -0.07623,-0.0857 -0.02499,0 -0.139966,0.0542 -0.139966,0.0657 2.6e-5,0.003 0.01005,0.0936 0.02,0.20097 0.01245,0.10737 0.01999,0.2006 0.01999,0.20713 2.25e-4,0.0183 0.0075,0.0153 0.07848,-0.0315 z m -6.717184,-1.19057 c 0.100725,-0.0397 0.1892,-0.0743 0.196697,-0.077 0.01245,-0.004 0.01245,-0.0185 0.01005,-0.10645 -0.0026,-0.0879 -0.0018,-0.10886 0.015,-0.15563 0.03024,-0.0909 0.06273,-0.11936 0.262505,-0.23074 0.18245,-0.10178 0.463648,-0.24493 0.828676,-0.4221 0.323662,-0.1571 0.962939,-0.45886 0.985907,-0.46541 l 0.02,-0.006 v 0.2296 c 0,0.12627 0.0012,0.22959 0.0025,0.22959 0.0015,0 0.03425,-0.0145 0.07298,-0.0323 l 0.07049,-0.0323 8.74e-4,-0.18914 c 8.75e-4,-0.20763 0.01005,-0.26925 0.05124,-0.31487 0.05424,-0.0616 0.509138,-0.2666 1.320418,-0.5951 0.35033,-0.14186 0.970588,-0.37852 1.042843,-0.39792 0.04548,-0.0123 0.04974,-0.012 0.06498,0.005 0.02625,0.0298 0.03574,0.11663 0.02923,0.26574 -0.0025,0.0733 -0.01005,0.16332 -0.01245,0.19999 -0.0025,0.0367 -0.005,0.068 -0.005,0.0697 0.0018,0.003 0.09372,-0.0247 0.269803,-0.08 l 0.04374,-0.0138 1.75e-4,-0.10699 c 2.25e-4,-0.12528 0.01005,-0.19532 0.0365,-0.25462 0.03749,-0.0844 0.12021,-0.1053 0.412712,-0.10392 0.222691,0.001 0.253307,0.006 0.275501,0.0393 l 0.01749,0.0258 -0.02974,0.20277 c -0.01749,0.11153 -0.02799,0.2049 -0.02574,0.20753 0.005,0.005 0.474697,0.0182 0.479895,0.0132 0.0049,-0.004 -0.015,-2.74901 -0.02,-2.75381 -0.0018,-0.002 -0.0225,0.009 -0.04524,0.0238 l -0.04199,0.0273 0.015,0.0235 c 0.02499,0.0356 0.03599,0.11767 0.02998,0.20439 -0.01005,0.13272 0.0015,0.11906 -0.177703,0.23093 -0.209193,0.1308 -0.57292,0.33575 -0.680541,0.38352 -0.164705,0.0731 -0.234686,0.0815 -0.305167,0.0366 -0.03274,-0.0207 -0.06674,-0.08 -0.06674,-0.11595 0,-0.009 -0.0018,-0.016 -0.0049,-0.016 -0.005,0 -0.13971,0.0839 -0.14421,0.0891 -0.0011,0.001 0.0025,0.0235 0.01005,0.0495 0.0075,0.026 0.01245,0.0794 0.01245,0.1188 0.0012,0.0932 -0.0225,0.15622 -0.07672,0.21197 -0.167204,0.16925 -1.797863,1.20501 -2.193857,1.39345 -0.169704,0.0807 -0.247433,0.0333 -0.247433,-0.15083 l -2.4e-5,-0.0833 -0.06299,0.0353 c -0.03449,0.0195 -0.06298,0.0398 -0.06298,0.0452 0,0.005 0.005,0.0398 0.01245,0.0765 0.02574,0.13736 0.01245,0.24503 -0.03874,0.29965 -0.06247,0.0676 -0.537379,0.40347 -1.028322,0.72726 -0.414362,0.27327 -0.832925,0.52159 -0.943819,0.55994 -0.05399,0.0188 -0.05823,0.0188 -0.10497,0.004 -0.02675,-0.009 -0.06273,-0.0285 -0.08024,-0.0442 -0.01999,-0.017 -0.03574,-0.0255 -0.04199,-0.0213 -0.04599,0.0316 -0.121966,0.11092 -0.156958,0.16357 -0.09273,0.13995 -0.198947,0.43432 -0.207944,0.57551 -0.005,0.07 -0.0026,0.0738 0.01245,0.0738 0.01005,0 0.09972,-0.0324 0.200446,-0.0721 z m 14.596927,0.0497 c 0.01245,-0.0614 -0.03974,-0.25792 -0.121965,-0.44902 -0.06449,-0.15028 -0.11997,-0.23363 -0.200946,-0.30279 l -0.05199,-0.0443 -0.04149,0.0324 c -0.0225,0.0183 -0.06148,0.0371 -0.08673,0.043 -0.05973,0.014 -0.103215,-0.002 -0.31124,-0.11869 -0.50274,-0.28102 -1.681545,-1.07746 -1.768622,-1.19494 -0.04149,-0.0561 -0.04949,-0.18465 -0.02,-0.31213 l 0.01245,-0.0498 -0.04323,-0.0281 c -0.02499,-0.0155 -0.05298,-0.0323 -0.06474,-0.0374 l -0.0225,-0.009 5.74e-4,0.0824 c 3e-4,0.066 -0.0025,0.0888 -0.01749,0.11475 -0.04599,0.0888 -0.109965,0.0952 -0.251706,0.0254 -0.304768,-0.15012 -1.212423,-0.71087 -1.824732,-1.12734 -0.337509,-0.22955 -0.387096,-0.27293 -0.415138,-0.36313 -0.015,-0.0523 -0.01749,-0.1554 -2.49e-4,-0.21568 0.0075,-0.0257 0.01245,-0.0498 0.01245,-0.0534 7.5e-5,-0.006 -0.134716,-0.0933 -0.144466,-0.0933 -0.0023,0 -0.0075,0.017 -0.01005,0.0378 -0.01245,0.0803 -0.09273,0.1329 -0.186449,0.12038 -0.118725,-0.0158 -0.436132,-0.1826 -0.919202,-0.48301 l -0.10647,-0.0662 -0.005,-0.0497 c -0.015,-0.14898 -0.01005,-0.22942 0.0225,-0.2767 0.01005,-0.0147 0.015,-0.0283 0.015,-0.0299 -0.0015,-0.002 -0.02773,-0.0185 -0.05799,-0.0374 l -0.05523,-0.0344 -0.005,1.38737 c -0.0025,0.76305 -0.005,1.38827 -0.0025,1.38937 0.005,0.005 0.491892,-0.0108 0.496266,-0.0158 0.0025,-0.003 -0.0075,-0.0946 -0.02499,-0.2035 -0.03324,-0.22372 -0.03199,-0.23932 0.02,-0.259 0.03999,-0.0147 0.398268,-0.0168 0.491517,-0.003 0.11472,0.0172 0.13896,0.0338 0.170954,0.11591 0.01999,0.0486 0.03748,0.22642 0.03099,0.29734 -0.0025,0.0408 -0.0025,0.0416 0.02674,0.0508 0.01749,0.005 0.08697,0.027 0.155708,0.0484 0.06873,0.0215 0.126465,0.0375 0.12822,0.0357 0.0018,-0.002 -8.74e-4,-0.0414 -0.0049,-0.088 -0.005,-0.0466 -0.0075,-0.1523 -0.0075,-0.23497 -7.5e-5,-0.1566 0.01005,-0.20995 0.03774,-0.22249 0.01999,-0.008 0.09173,0.0152 0.374824,0.12182 0.762493,0.28722 1.751027,0.70214 1.967767,0.82594 0.11397,0.0651 0.122715,0.0902 0.124965,0.36249 l 0.0014,0.19462 0.06148,0.0269 c 0.03399,0.0147 0.06798,0.0292 0.07574,0.032 0.01245,0.005 0.015,-0.0135 0.015,-0.22097 3e-4,-0.12435 0.0025,-0.2281 0.005,-0.23055 0.005,-0.005 0.606986,0.27815 1.094679,0.51533 0.325912,0.1585 0.725629,0.36657 0.855744,0.44544 0.07098,0.043 0.117465,0.0977 0.137715,0.16217 0.01749,0.0538 0.0225,0.14727 0.01005,0.21455 -0.005,0.0377 -0.005,0.0393 0.02,0.0493 0.015,0.006 0.104475,0.0407 0.198696,0.0777 0.09447,0.037 0.178202,0.0673 0.186449,0.0673 0.0075,0 0.01749,-0.01 0.02,-0.0225 z m -14.036328,-0.2823 c 0.33291,-0.1425 0.878412,-0.38076 1.373803,-0.60009 l 0.350255,-0.15507 v -0.2129 c 0,-0.1171 -0.0023,-0.21289 -0.005,-0.21289 -0.0075,0 -0.632529,0.29598 -0.9259,0.43834 -0.62713,0.30433 -1.007627,0.50693 -1.056713,0.56265 -0.04624,0.0525 -0.06324,0.10565 -0.06324,0.19898 -9.9e-5,0.0942 0.0049,0.1192 0.02724,0.10968 0.0075,-0.004 0.142965,-0.0615 0.299868,-0.12867 z m 13.5818,0.1035 c 0.01005,-0.0502 0.005,-0.13635 -0.0075,-0.18232 -0.015,-0.0575 -0.04124,-0.0978 -0.08223,-0.12717 -0.09548,-0.0683 -0.447678,-0.25365 -0.925448,-0.48679 -0.280875,-0.13707 -0.999705,-0.47894 -1.021425,-0.48579 -0.01245,-0.004 -0.015,0.01 -0.015,0.20907 v 0.21372 l 0.513861,0.22678 c 0.282649,0.12472 0.704534,0.30918 0.937546,0.40989 0.53593,0.23163 0.581943,0.25133 0.588342,0.25189 0.0025,2.6e-4 0.0075,-0.0131 0.01005,-0.0293 z m -12.03022,-0.40115 c 0.015,-0.017 0.035,-0.0546 0.04449,-0.0836 0.01749,-0.0558 0.04475,-0.2124 0.03624,-0.21648 -0.0025,-10e-4 -0.05199,0.0182 -0.109726,0.0433 l -0.104715,0.0457 0.0021,0.0472 c 0.0025,0.072 0.02625,0.1445 0.05424,0.17133 0.03224,0.0308 0.04473,0.0296 0.07723,-0.007 z m 10.229259,0.0165 c 0.0225,-0.0183 0.05174,-0.10527 0.05799,-0.17475 l 0.005,-0.0537 -0.106725,-0.0457 c -0.05874,-0.0251 -0.108721,-0.0434 -0.110971,-0.0406 -0.0075,0.008 0.01245,0.1336 0.03324,0.2019 0.02,0.0675 0.06074,0.12727 0.08772,0.12727 0.01005,0 0.02499,-0.006 0.03399,-0.0143 z m -11.937498,-0.21083 c 0.07473,-0.0336 0.322813,-0.17464 0.486144,-0.27629 0.5585,-0.34761 1.345612,-0.89017 1.438336,-0.99144 0.04974,-0.0544 0.05799,-0.1335 0.03,-0.2856 -0.005,-0.0275 -0.01245,-0.05 -0.015,-0.05 -0.0075,0 -0.291596,0.17188 -0.403366,0.24368 -0.428484,0.27536 -1.102576,0.77623 -1.636908,1.21626 l -0.115725,0.0952 0.01749,0.022 c 0.0225,0.0258 0.07548,0.0495 0.115215,0.0505 0.015,4.2e-4 0.05298,-0.0105 0.08397,-0.0245 z m 13.710742,0.0105 c 0.02,-0.008 0.04648,-0.023 0.05823,-0.0335 l 0.02,-0.019 -0.02525,-0.0238 c -0.12096,-0.11418 -0.814205,-0.65279 -1.178757,-0.91588 -0.426259,-0.30763 -0.939095,-0.63774 -0.95614,-0.61545 -0.01245,0.0152 -0.027,0.1197 -0.027,0.18462 0,0.122 0.015,0.13988 0.29932,0.34453 0.55575,0.40077 1.371004,0.92432 1.644381,1.056 0.08373,0.0403 0.10947,0.0438 0.164205,0.0222 z m -11.359777,-0.11812 c 0.0225,-0.0267 0.03749,-0.0589 0.05249,-0.1119 0.0225,-0.0823 0.04299,-0.17365 0.03824,-0.17882 -0.0018,-0.002 -0.05223,0.019 -0.112216,0.0463 l -0.108975,0.0497 0.0025,0.0471 c 0.0025,0.0656 0.02499,0.14427 0.044,0.16647 0.02499,0.0282 0.04923,0.0228 0.08397,-0.0188 z m 8.948805,0.0233 c 0.0225,-0.017 0.04124,-0.0833 0.04874,-0.1619 l 0.005,-0.0571 -0.111721,-0.0488 c -0.06149,-0.0269 -0.112725,-0.0479 -0.113715,-0.0468 -0.0012,10e-4 0.0075,0.0467 0.02,0.10122 0.03974,0.18032 0.09522,0.25842 0.15196,0.21345 z m -8.925961,-0.39913 c 0.14646,-0.065 0.432309,-0.19292 0.635328,-0.28427 0.202945,-0.0913 0.386146,-0.1731 0.40689,-0.1817 0.02,-0.009 0.25863,-0.0823 0.528558,-0.16387 0.269927,-0.0815 0.510086,-0.15457 0.53368,-0.1623 l 0.04299,-0.0139 0.01005,-0.1116 c 0.01245,-0.12985 0.01245,-0.33698 0.0023,-0.37826 -0.0075,-0.025 -0.01005,-0.0285 -0.03624,-0.0276 -0.118965,0.004 -1.940325,0.74536 -2.279008,0.9279 -0.07998,0.0431 -0.08748,0.0496 -0.102226,0.0874 -0.0075,0.0225 -0.02,0.0833 -0.02499,0.13522 -0.01005,0.0988 -0.0025,0.29138 0.01005,0.29138 0.005,0 0.127216,-0.0532 0.273526,-0.1182 z m 9.109287,0.0352 c 0.01005,-0.1518 -0.0075,-0.32463 -0.04149,-0.37343 -0.04624,-0.0677 -1.010752,-0.48198 -1.985363,-0.85289 -0.291446,-0.1109 -0.397892,-0.14655 -0.406966,-0.13625 -0.01245,0.0132 -0.01999,0.0838 -0.01999,0.16943 -2.76e-4,0.12432 0.01749,0.33576 0.02824,0.34879 0.01005,0.0102 0.132211,0.0485 0.779464,0.24235 0.155958,0.0467 0.316315,0.0992 0.356554,0.11673 0.07574,0.033 1.067062,0.47735 1.193152,0.53485 0.03924,0.018 0.07574,0.0327 0.08099,0.033 0.005,3e-4 0.01245,-0.0294 0.015,-0.0825 z m -7.171085,-0.45575 c 0.01005,-0.008 0.02773,-0.035 0.03875,-0.0595 0.01999,-0.0425 0.05799,-0.17327 0.05349,-0.17855 -0.0012,-0.001 -0.03899,0.009 -0.08399,0.0228 l -0.08172,0.0252 v 0.0527 c 0,0.0622 0.01005,0.11025 0.03049,0.13481 0.01749,0.0215 0.02,0.0217 0.04349,0.003 z m 4.985051,0.006 c 0.0075,-0.005 0.01999,-0.0235 0.02499,-0.0405 0.01245,-0.0446 0.02,-0.13392 0.01245,-0.14662 -0.0025,-0.006 -0.04149,-0.0213 -0.08423,-0.0342 -0.09147,-0.0275 -0.09023,-0.0293 -0.05549,0.0799 0.02998,0.0945 0.05724,0.14205 0.08547,0.15012 0.0014,4.3e-4 0.01005,-0.004 0.01749,-0.009 z m -4.582261,-0.10245 c 0.03574,-0.0574 0.110715,-0.25312 0.10122,-0.26394 -0.002,-0.002 -0.04299,0.008 -0.09147,0.0225 -0.07724,0.0232 -0.08823,0.0292 -0.09072,0.0486 -0.005,0.0295 0.015,0.16757 0.02574,0.19612 0.01245,0.0303 0.035,0.0289 0.05523,-0.003 z m 4.202538,-0.0168 c 0.0075,-0.021 0.01245,-0.0742 0.01245,-0.11839 l 0.0015,-0.0803 -0.08748,-0.0266 c -0.04824,-0.0145 -0.08898,-0.025 -0.09072,-0.023 -0.0026,0.004 0.04948,0.16217 0.06823,0.20347 0.02,0.0451 0.05649,0.089 0.07049,0.0859 0.0075,-0.002 0.01749,-0.02 0.02499,-0.0409 z m -3.371488,-0.54998 c 0.02975,-0.20555 0.03125,-0.22872 0.015,-0.2444 -0.01749,-0.0172 -0.325237,-0.025 -0.445528,-0.0109 -0.129721,0.015 -0.166955,0.0327 -0.1892,0.0899 -0.02,0.0536 -0.035,0.17035 -0.03148,0.26306 l 0.0025,0.0714 0.15096,0.005 c 0.08298,0.003 0.223189,0.006 0.311191,0.007 l 0.160206,0.002 z m 2.90364,0.177 0.228938,-0.006 -0.005,-0.12941 c -0.0075,-0.191 -0.0275,-0.25014 -0.09848,-0.27572 -0.100981,-0.0365 -0.540579,-0.0391 -0.571971,-0.003 -0.0075,0.009 -0.0049,0.0516 0.01749,0.2094 0.015,0.10863 0.02974,0.20072 0.03174,0.20465 0.005,0.009 0.100215,0.009 0.396491,8.2e-4 z m -6.923253,-0.085 c 0.04499,-0.0296 0.195197,-0.12057 0.333511,-0.2022 0.138465,-0.0816 0.317764,-0.18792 0.398516,-0.23627 l 0.146716,-0.0879 0.0024,-0.10545 c 0.0014,-0.0682 -6e-4,-0.10545 -0.0075,-0.10545 -0.01749,0 -0.200945,0.0807 -0.306243,0.135 -0.192947,0.0995 -0.651397,0.37805 -0.687264,0.41754 -0.005,0.005 -0.0025,0.058 0.0025,0.12833 0.0075,0.0936 0.01245,0.11899 0.0225,0.11515 0.005,-0.003 0.04824,-0.0292 0.09323,-0.0588 z m 10.623927,0.0508 c 2.75e-4,-0.006 0.005,-0.0612 0.01245,-0.12143 0.005,-0.0602 0.01005,-0.11037 0.01005,-0.1114 -0.01245,-0.0172 -0.452353,-0.29025 -0.587991,-0.36401 -0.158708,-0.0863 -0.386945,-0.19123 -0.415963,-0.19123 -0.0049,0 -0.0075,0.0468 -0.0075,0.10395 v 0.10398 l 0.07747,0.0473 c 0.04273,0.026 0.145456,0.087 0.228688,0.13565 0.198197,0.11605 0.519535,0.31022 0.604062,0.36505 0.07323,0.0474 0.07947,0.05 0.08022,0.0322 z m -9.822219,-0.068 c 0.299095,-0.14075 1.315994,-0.76966 1.921606,-1.18845 0.324536,-0.22442 0.337258,-0.23932 0.336308,-0.39344 -2.74e-4,-0.053 -0.005,-0.0972 -0.01245,-0.11587 l -0.01245,-0.0302 -0.146715,0.0926 c -0.294821,0.18594 -0.87424,0.5476 -1.321394,0.82477 -0.25843,0.1602 -0.844096,0.51548 -0.911402,0.55288 -0.04499,0.025 -0.04749,0.0283 -0.05249,0.069 -0.02499,0.20327 0.03924,0.26377 0.198697,0.18867 z m 9.073221,0.0175 c 0.03024,-0.024 0.04374,-0.0648 0.04374,-0.1311 0,-0.11628 0.0075,-0.10586 -0.157958,-0.20427 -0.08148,-0.0483 -0.178451,-0.10632 -0.215441,-0.12885 -0.03699,-0.0225 -0.10497,-0.0639 -0.150959,-0.092 -0.243685,-0.14823 -1.021974,-0.63149 -1.669549,-1.0368 l -0.243434,-0.15228 -0.01005,0.0306 c -0.02874,0.0933 -0.02,0.2052 0.0225,0.27034 0.01245,0.0213 0.05924,0.0639 0.10647,0.0992 0.341158,0.25522 1.304873,0.87268 1.835304,1.1759 0.305692,0.17475 0.391144,0.20765 0.439431,0.16924 z m -7.11365,-1.6917 c 0.210443,-0.13197 0.428083,-0.26858 0.483444,-0.30359 l 0.100725,-0.0636 0.0024,-0.11655 0.0023,-0.11655 -0.0225,0.006 c -0.05223,0.0143 -0.267527,0.117 -0.411613,0.1962 -0.269677,0.1482 -0.572396,0.34369 -0.572271,0.36955 5.1e-5,0.009 0.0049,0.0693 0.01245,0.13478 0.0075,0.0655 0.01245,0.12225 0.01245,0.12618 5.1e-5,0.004 0.0024,0.007 0.005,0.007 0.0025,0 0.177452,-0.10797 0.388019,-0.23995 z m 5.390267,0.22327 c 0.01005,-0.0414 0.02499,-0.26064 0.01749,-0.26884 -0.04199,-0.0478 -0.579368,-0.36854 -0.766493,-0.45763 -0.100725,-0.048 -0.213941,-0.0949 -0.228688,-0.0949 -0.005,0 -0.005,0.0519 -0.005,0.11538 l 0.0024,0.11538 0.117466,0.0732 c 0.169454,0.1056 0.529906,0.33202 0.700534,0.43993 0.08073,0.0511 0.149461,0.0931 0.152459,0.0935 0.0025,3.5e-4 0.0075,-0.007 0.01005,-0.016 z m -4.575862,-0.31923 c 0.14346,-0.0648 0.595188,-0.3238 0.803357,-0.46054 0.03148,-0.0207 0.03774,-0.0487 0.03774,-0.1689 0,-0.0726 -0.01005,-0.11812 -0.03324,-0.15625 -0.005,-0.009 -0.148966,0.0767 -0.568971,0.33996 -0.308817,0.19362 -0.564998,0.35825 -0.569271,0.36582 -0.01245,0.0203 0.01749,0.0967 0.04274,0.11599 0.05624,0.0419 0.137715,0.0316 0.287597,-0.0361 z m 3.655161,0.0343 c 0.02499,-0.0177 0.04524,-0.0652 0.04498,-0.10046 -4.9e-5,-0.0163 -0.01005,-0.028 -0.03974,-0.0461 -0.0225,-0.0135 -0.13596,-0.0849 -0.253732,-0.15877 -0.11772,-0.074 -0.353605,-0.22205 -0.524308,-0.3291 l -0.310366,-0.19465 -0.01749,0.0286 c -0.01005,0.0158 -0.02,0.048 -0.02499,0.0716 -0.0075,0.06 0.0021,0.20268 0.015,0.21735 0.02,0.022 0.318515,0.20375 0.530956,0.3229 0.381097,0.21377 0.495867,0.25108 0.579894,0.1886 z m -1.322393,-1.57414 v -0.1901 l -0.04399,-0.0155 c -0.02499,-0.008 -0.06723,-0.0177 -0.09548,-0.0207 -0.04874,-0.005 -0.05223,-0.004 -0.06622,0.02 -0.01749,0.0285 -0.02,0.11487 -0.01005,0.25586 0.0049,0.0688 0.01005,0.0852 0.0225,0.0935 0.01749,0.0115 0.14421,0.0448 0.172953,0.0461 l 0.02,8e-4 z m -1.194353,0.042 c 0.015,-0.0109 0.02,-0.0257 0.02499,-0.10143 0.015,-0.1946 0.005,-0.26397 -0.03575,-0.2658 -0.03599,-0.002 -0.06249,0.002 -0.09672,0.0115 l -0.03148,0.009 v 0.18853 c 0,0.10367 0.0021,0.19089 0.005,0.19379 0.0075,0.008 0.113715,-0.0207 0.134971,-0.0359 z"
       id="path14" />
    <text
       xml:space="preserve"
       style="font-style:normal;font-variant:normal;font-weight:normal;font-stretch:normal;font-size:3.175px;font-family:Impact;-inkscape-font-specification:'Impact, Normal';font-variant-ligatures:normal;font-variant-caps:normal;font-variant-numeric:normal;font-variant-east-asian:normal;text-align:start;letter-spacing:1.32292px;writing-mode:lr-tb;direction:ltr;text-anchor:start;fill:none;fill-opacity:1;stroke:#000000;stroke-width:0.264583;stroke-opacity:1"
       x="15.087704"
       y="262.57996"
       id="text14"><tspan
         sodipodi:role="line"
         id="tspan14"
         x="15.087704"
         y="262.57996"
         style="stroke-width:0.264583">5 LUGLIO</tspan></text>
    <text
       xml:space="preserve"
       style="font-style:normal;font-variant:normal;font-weight:normal;font-stretch:normal;font-size:3.175px;font-family:Impact;-inkscape-font-specification:'Impact, Normal';font-variant-ligatures:normal;font-variant-caps:normal;font-variant-numeric:normal;font-variant-east-asian:normal;text-align:start;letter-spacing:1.32292px;writing-mode:lr-tb;direction:ltr;text-anchor:start;fill:none;fill-opacity:1;stroke:#000000;stroke-width:0.264583;stroke-opacity:1"
       x="20.215183"
       y="285.99026"
       id="text14-9"><tspan
         sodipodi:role="line"
         id="tspan14-0"
         x="20.215183"
         y="285.99026"
         style="stroke-width:0.264583">2026</tspan></text>
  </g>
</svg>
