<?xml version="1.0" encoding="UTF-8" standalone="no"?>
<!-- Created with Inkscape (http://www.inkscape.org/) -->

<svg
   width="210mm"
   height="297mm"
   viewBox="0 0 210 297"
   version="1.1"
   id="svg1"
   inkscape:version="1.4.2 (f4327f4, 2025-05-13)"
   sodipodi:docname="TRAIETTORIA_RIBALTATA_SPECCHIATA.svg"
   xmlns:inkscape="http://www.inkscape.org/namespaces/inkscape"
   xmlns:sodipodi="http://sodipodi.sourceforge.net/DTD/sodipodi-0.dtd"
   xmlns="http://www.w3.org/2000/svg"
   xmlns:svg="http://www.w3.org/2000/svg">
  <sodipodi:namedview
     id="namedview1"
     pagecolor="#ffffff"
     bordercolor="#000000"
     borderopacity="0.25"
     inkscape:showpageshadow="2"
     inkscape:pageopacity="0.0"
     inkscape:pagecheckerboard="0"
     inkscape:deskcolor="#d1d1d1"
     inkscape:document-units="mm"
     inkscape:zoom="2.8756734"
     inkscape:cx="180.82721"
     inkscape:cy="1091.0488"
     inkscape:window-width="1920"
     inkscape:window-height="1009"
     inkscape:window-x="1912"
     inkscape:window-y="-8"
     inkscape:window-maximized="1"
     inkscape:current-layer="layer1" />
  <defs
     id="defs1">
    <inkscape:path-effect
       effect="spiro"
       id="path-effect15-4-8"
       is_visible="true"
       lpeversion="1" />
  </defs>
  <g
     inkscape:label="Livello 1"
     inkscape:groupmode="layer"
     id="layer1">
    <path
       style="fill:#000000;stroke-width:0.278587"
       d="m 14.98212,280.83151 c -0.0398,-0.0575 -0.2192,-0.11272 -0.58133,-0.17895 -0.0812,-0.015 -0.14883,-0.028 -0.15033,-0.029 -0.001,-10e-4 0.0165,-0.0562 0.0398,-0.12271 0.33625,-0.95517 0.67243,-1.92321 0.67243,-1.93625 0,-0.0101 -0.009,-0.0225 -0.0213,-0.0297 -0.0458,-0.0283 -0.34065,-0.0101 -0.50868,0.0332 -0.10639,0.0267 -0.24102,0.0835 -0.30551,0.12846 -0.17562,0.12297 -0.60235,0.74639 -1.13782,1.66242 l -0.0417,0.0712 -0.0425,-0.001 c -0.0235,-8.7e-4 -0.16813,-0.0175 -0.32165,-0.0355 -0.7465,-0.091 -1.93776,-0.21619 -2.16843,-0.22794 -0.0891,-0.005 -0.6406699,-0.0101 -1.2258399,-0.015 -0.58517,-0.003 -1.06712,-0.0101 -1.07099,-0.0125 -0.009,-0.007 -0.0367,-1.12782 -0.0286,-1.15598 0.005,-0.0175 0.0172,-0.025 0.061,-0.0358 0.0843,-0.0225 0.22287,-0.0832 0.25741,-0.11198 0.0352,-0.0292 0.0392,-0.0537 0.0125,-0.0772 -0.0248,-0.0225 -0.075,-0.0335 -0.16967,-0.0397 -0.0432,-0.003 -0.0785,-0.007 -0.0785,-0.0101 3.4e-4,-0.015 0.0483,-0.15571 0.0545,-0.16046 0.004,-0.002 0.0368,-0.0125 0.0729,-0.02 0.0828,-0.02 0.17119,-0.0577 0.19615,-0.0857 0.0253,-0.0282 0.0245,-0.0625 -0.002,-0.0845 -0.0292,-0.025 -0.0625,-0.034 -0.1356,-0.0407 -0.0341,-0.002 -0.062,-0.007 -0.062,-0.0125 0,-0.002 0.0508,-0.1737 0.11298,-0.37857 0.10961,-0.3616 0.1165,-0.38045 0.23254,-0.6368 0.15745,-0.34781 0.29792,-0.66235 0.30605,-0.68534 0.007,-0.02 0.016,-0.0225 0.0817,-0.0322 0.0655,-0.0101 0.1897,-0.0452 0.22908,-0.067 0.0679,-0.0377 0.0939,-0.0925 0.0659,-0.13872 -0.0157,-0.0257 -0.0801,-0.0497 -0.1623,-0.0602 -0.0451,-0.005 -0.0744,-0.0125 -0.072,-0.0175 0.002,-0.005 0.0387,-0.0862 0.0811,-0.18095 l 0.0771,-0.17221 0.0977,-0.0125 c 0.18577,-0.026 0.28346,-0.0767 0.28346,-0.14721 0,-0.0592 -0.0726,-0.10098 -0.20237,-0.11647 -0.0248,-0.002 -0.0452,-0.0101 -0.0452,-0.015 0,-0.005 0.0325,-0.0832 0.0722,-0.17296 0.38237,-0.86376 0.7188099,-1.65092 0.7940799,-1.85792 0.0493,-0.13546 0.0391,-0.1817 -0.0455,-0.20644 -0.0929,-0.027 -0.3056199,0.0175 -0.5313199,0.11371 -0.2179,0.092 -0.26857,0.13071 -0.44394,0.34021 -0.3864,0.46155 -0.82069,1.03107 -1.12655,1.4773 -0.0614,0.0897 -0.11302,0.16421 -0.11472,0.16596 -0.002,0.002 -0.0661,-0.003 -0.14307,-0.0125 -0.11842,-0.0125 -0.14125,-0.0125 -0.14808,-0.002 -0.15692,0.22519 -0.38395,0.60568 -0.46938,0.78671 -0.0419,0.089 -0.11197,0.2624 -0.1075,0.26633 0.001,8.7e-4 0.0545,0.002 0.1186,0.005 0.0642,10e-4 0.11663,0.002 0.11663,0.005 0,0.003 -0.40768,0.66567 -0.56413,0.91747 -0.076,0.12222 -0.17793,0.2865 -0.22655,0.36496 -0.0486,0.0785 -0.0888,0.1432 -0.0893,0.14395 -5e-4,6e-4 -0.0737,-0.005 -0.1627,-0.015 -0.12469,-0.0125 -0.16342,-0.0125 -0.16897,-0.005 -0.15217,0.21344 -0.40572,0.6457 -0.49069,0.83645 -0.047,0.10548 -0.0881,0.20969 -0.0881,0.22369 0,10e-4 0.0571,0.002 0.12687,0.005 l 0.12687,0.002 -0.10842,0.17195 c -0.14441,0.22894 -0.29406,0.46755 -0.40276,0.64183 -0.0489,0.0785 -0.109,0.1747 -0.13347,0.21394 l -0.0445,0.0712 -0.937,-0.005 c -1.48159,-0.007 -1.7801,-0.005 -1.90841,0.007 -0.44725,0.0435 -0.91547,0.13547 -1.37614997,0.27045 -0.46468,0.13622 -0.80431,0.30507 -0.88477,0.43986 -0.0474,0.0795 -0.0146,0.1792 0.085,0.25805 0.24745,0.19595 0.96351997,0.39862 1.69499997,0.47967 0.43758,0.0485 0.65062,0.0547 2.06898,0.061 1.04698,0.005 1.25472,0.007 1.25472,0.0175 0,0.0125 0.0717,0.12972 0.47433,0.77175 0.11625,0.18544 0.21137,0.3407 0.21137,0.34523 0,0.005 -0.0492,0.007 -0.12102,0.0101 -0.0666,5.7e-4 -0.12235,0.002 -0.12394,0.005 -0.006,0.005 0.0737,0.19769 0.1219,0.29539 0.0763,0.15446 0.21615,0.39619 0.33788,0.58379 0.0608,0.0937 0.11412,0.17371 0.11843,0.17771 0.006,0.005 0.1755,-0.007 0.31331,-0.0225 0.008,-8.8e-4 0.0402,0.041 0.0795,0.10347 0.0959,0.15195 0.68914,1.11075 0.75907,1.22696 l 0.0593,0.0987 h -0.11982 c -0.0659,0 -0.11985,10e-4 -0.11985,0.002 0,0.002 0.017,0.0465 0.0375,0.0992 0.0868,0.22194 0.23917,0.49842 0.45536,0.82678 0.10312,0.15671 0.0747,0.14296 0.25892,0.12396 0.0652,-0.007 0.11917,-0.0125 0.12,-0.0101 8.5e-4,10e-4 0.0479,0.0697 0.10459,0.15296 0.35986,0.52723 1.10244,1.4864 1.28703,1.66237 0.0882,0.084 0.2967,0.1857 0.50315,0.24519 0.2019699,0.0582 0.3097499,0.0615 0.3690399,0.0125 0.0411,-0.0347 0.0359,-0.0737 -0.0345,-0.25828 -0.0902,-0.23669 -0.3191199,-0.77307 -0.6673699,-1.56388 -0.0923,-0.20969 -0.16569,-0.38617 -0.16304,-0.39222 0.003,-0.005 0.0168,-0.01 0.0313,-0.01 0.0351,-1.5e-4 0.11418,-0.02 0.1521,-0.0362 0.04,-0.0175 0.0601,-0.0447 0.0601,-0.0795 0,-0.0767 -0.0952,-0.12147 -0.33649,-0.15821 l -0.046,-0.007 -0.0754,-0.1677 c -0.0414,-0.0922 -0.0776,-0.17395 -0.0804,-0.1812 -0.004,-0.0101 0.006,-0.015 0.0547,-0.0175 0.082,-0.007 0.12543,-0.02 0.15943,-0.0445 0.0237,-0.0175 0.0289,-0.0277 0.0289,-0.0572 0,-0.0765 -0.0904,-0.12647 -0.29523,-0.16371 l -0.081,-0.015 -0.10278,-0.22994 c -0.0565,-0.12646 -0.1502,-0.3353 -0.20817,-0.46419 -0.058,-0.12897 -0.11163,-0.24969 -0.11925,-0.26848 -0.016,-0.0397 -0.2317,-0.7464 -0.2317,-0.75945 0,-0.005 0.017,-0.01 0.0376,-0.01 0.14471,0 0.22782,-0.069 0.15767,-0.13071 -0.0314,-0.0277 -0.12582,-0.0665 -0.20599,-0.0847 l -0.0645,-0.015 -0.0203,-0.0675 c -0.0109,-0.037 -0.0222,-0.0735 -0.0245,-0.081 -0.005,-0.015 0.029,-0.025 0.0858,-0.025 0.044,0 0.1404,-0.025 0.16005,-0.0395 0.058,-0.0462 -0.0388,-0.11622 -0.25406,-0.1837 -0.0592,-0.0175 -0.0732,-0.0262 -0.0782,-0.0437 -0.006,-0.0225 0.0123,-0.96561 0.0217,-1.09858 l 0.006,-0.0775 0.95861,-3e-4 c 1.0903099,-5.7e-4 1.4965199,-0.007 1.7585799,-0.0325 0.49394,-0.0462 1.25313,-0.13246 1.78476,-0.20269 0.17497,-0.0225 0.32122,-0.039 0.32498,-0.0352 0.004,0.002 0.038,0.0595 0.076,0.12421 0.35878,0.60914 0.65384,1.06721 0.86738,1.34654 0.16337,0.21369 0.23002,0.27353 0.37367,0.33536 0.1476,0.0635 0.35171,0.10097 0.55073,0.10097 0.11547,0 0.1509,-0.0101 0.1509,-0.0415 0,-0.007 -0.16227,-0.47892 -0.36062,-1.0454 l -0.36062,-1.02992 0.25348,-0.0567 c 0.27306,-0.061 0.30384,-0.0695 0.38273,-0.10447 0.11685,-0.052 0.14527,-0.0935 0.10447,-0.15246 z m -0.1765,-2.1122 -0.0333,0.0937 -0.0521,0.005 c -0.0658,0.005 -0.1695,0.053 -0.22692,0.10272 -0.0955,0.083 -0.25401,0.42748 -0.51128,1.1113 -0.0616,0.1637 -0.12837,0.34501 -0.14835,0.40269 -0.02,0.0577 -0.0389,0.10771 -0.0421,0.11097 -0.003,0.002 -0.0424,6e-4 -0.087,-0.007 -0.0447,-0.008 -0.20698,-0.0295 -0.3607,-0.0502 -0.15373,-0.02 -0.28137,-0.0392 -0.28365,-0.0415 -0.008,-0.007 0.2857,-0.49452 0.50545,-0.83957 0.26952,-0.42321 0.47023,-0.69729 0.58746,-0.80221 0.0844,-0.0755 0.1822,-0.12171 0.32502,-0.15346 0.1335,-0.0298 0.36068,-0.0505 0.36068,-0.0327 0,0.002 -0.015,0.048 -0.0333,0.0995 z m -0.0739,4.44822 c -0.2197,-0.01 -0.41957,-0.0655 -0.53787,-0.15121 -0.0897,-0.065 -0.22629,-0.23468 -0.42375,-0.52608 -0.23899,-0.3527 -0.72354,-1.14214 -0.70894,-1.15499 0.004,-0.005 0.72412,-0.11172 0.72661,-0.10897 6.9e-4,8.7e-4 0.0363,0.0987 0.0791,0.21794 0.21962,0.61081 0.43351,1.12702 0.54647,1.31884 0.0653,0.11097 0.15548,0.17395 0.29309,0.2047 l 0.0692,0.015 0.0306,0.083 c 0.0168,0.0455 0.0311,0.0882 0.0316,0.0945 8.3e-4,0.0101 -0.0183,0.0101 -0.10615,0.007 z m -0.22603,-3.59242 c -0.13724,0.39201 -0.27308,0.78071 -0.30184,0.86376 -0.0288,0.083 -0.0559,0.15421 -0.0602,0.15821 -0.005,0.005 -0.075,-0.002 -0.1615,-0.015 l -0.15355,-0.0225 0.006,-0.0257 c 0.003,-0.015 0.0705,-0.19745 0.149,-0.40754 0.27925,-0.7471 0.43778,-1.09843 0.53336,-1.18201 0.0455,-0.0397 0.15457,-0.091 0.21129,-0.099 0.0302,-0.005 0.0363,-0.002 0.032,0.008 -0.003,0.007 -0.11759,0.33291 -0.25485,0.72493 z m 0.15868,3.35114 c -0.077,-0.0255 -0.15763,-0.0817 -0.19522,-0.13671 -0.0723,-0.10547 -0.18238,-0.34673 -0.33968,-0.74398 -0.12859,-0.32473 -0.30011,-0.79078 -0.30011,-0.81545 0,-0.01 0.0362,-0.02 0.1533,-0.0397 0.0843,-0.015 0.15453,-0.0257 0.15603,-0.025 0.002,0.002 0.10517,0.29504 0.49562,1.41217 0.122,0.349 0.1254,0.36083 0.10505,0.36325 -0.0115,0.002 -0.0453,-0.005 -0.075,-0.015 z m -0.35493,-1.89227 c -0.60172,0.12147 -1.65651,0.27098 -2.86787,0.40629 l -0.0593,0.008 -0.0455,-0.0715 c -0.025,-0.0392 -0.0677,-0.0927 -0.0949,-0.11873 -0.0582,-0.0555 -0.10312,-0.0712 -0.17709,-0.0622 -0.0522,0.007 -0.20395,0.0702 -0.2323,0.0977 -0.0254,0.025 -0.0205,0.0767 0.0139,0.14521 0.0294,0.0585 0.0294,0.0587 0.009,0.061 -0.26337,0.028 -0.28422,0.0283 -3.1854199,0.0373 -1.57287,0.005 -2.86201,0.008 -2.86474,0.005 -0.003,-0.002 -0.0135,-0.0415 -0.024,-0.0872 -0.0105,-0.0455 -0.0263,-0.096 -0.0352,-0.11197 -0.0205,-0.037 -0.051,-0.0427 -0.23677,-0.0447 -0.12363,-10e-4 -0.13717,5e-5 -0.1619,0.015 -0.0235,0.015 -0.0273,0.025 -0.0299,0.0662 -0.002,0.0435 0.004,0.0865 0.0232,0.14621 l 0.007,0.02 -0.90863,-0.005 c -0.49975,-0.002 -0.98577,-0.01 -1.08005,-0.015 -0.64842,-0.0312 -1.31187,-0.14672 -1.78701997,-0.31092 l -0.1204,-0.0417 -0.0192,-0.0395 c -0.0694,-0.14346 -0.0757,-0.27948 -0.0185,-0.40029 0.0348,-0.0732 0.0469,-0.083 0.16142,-0.12797 0.40888,-0.16046 1.05528997,-0.31574 1.55976997,-0.375 0.24858,-0.0292 0.35114,-0.0312 1.23171,-0.0252 l 0.86504,0.005 -0.006,0.0175 c -0.016,0.0505 -0.017,0.11198 -0.002,0.13697 0.0266,0.0452 0.12918,0.054 0.35667,0.0305 0.0599,-0.005 0.0693,-0.0175 0.095,-0.11622 l 0.0165,-0.0632 0.49046,2.5e-4 c 0.26975,1.5e-4 0.66617,0.002 0.88092,0.005 0.21475,0.002 1.24758,0.0101 2.29516,0.0175 1.04759,0.007 1.9561299,0.015 2.0189899,0.0175 0.10975,0.005 0.48168,0.037 0.48947,0.043 0.002,10e-4 -0.008,0.0257 -0.0223,0.0537 -0.034,0.0667 -0.0366,0.11746 -0.007,0.1447 0.012,0.0125 0.0579,0.0365 0.10211,0.056 0.18517,0.082 0.27987,0.0477 0.39999,-0.14496 0.0213,-0.0342 0.0411,-0.056 0.0507,-0.056 0.0264,3e-5 0.89746,0.0985 1.22885,0.13872 0.718,0.0875 1.25605,0.16146 1.49162,0.20495 l 0.0857,0.015 -0.10001,-0.005 c -0.16219,-0.0101 -1.04304,-0.005 -1.28567,0.005 -0.79447,0.035 -1.28428,0.0905 -1.34818,0.15271 -0.018,0.0175 -0.018,0.0175 0.004,0.0337 0.08,0.057 0.53733,0.10747 1.20995,0.13345 0.21047,0.007 1.15611,0.0125 1.24847,0.005 0.0235,-0.002 0.0964,-0.005 0.1619,-0.007 0.12659,-0.005 0.28778,-0.0175 0.34284,-0.026 0.0783,-0.0125 0.0112,0.007 -0.11989,0.0337 z m -12.6785599,0.25871 c -0.0667,-0.0405 -0.1862,-0.13997 -0.23512,-0.19595 -0.0238,-0.0272 -0.0546,-0.0712 -0.0686,-0.0977 -0.0677,-0.12871 0.001,-0.27417 0.2235,-0.4709 0.0592,-0.0525 0.10766,-0.096 0.10766,-0.0965 10e-6,-0.002 -0.18287,0.005 -0.23799,0.01 l -0.0618,0.005 -0.0688,0.0755 c -0.1741,0.19119 -0.2325,0.3431 -0.18495,0.48102 0.025,0.0722 0.10875,0.18545 0.1916,0.2585 l 0.0585,0.0515 0.1569,0.005 c 0.0863,0.003 0.15844,0.005 0.16037,0.003 0.002,-0.002 -0.0168,-0.015 -0.0413,-0.0302 z m 9.4869799,0.18195 c -0.10065,0.0101 -0.1892,0.0175 -0.19672,0.0175 -0.0192,0 -0.0745,-0.11997 -0.0708,-0.15371 0.002,-0.0225 0.0115,-0.0312 0.0551,-0.054 0.0842,-0.0442 0.15002,-0.0627 0.20805,-0.0587 0.0448,0.002 0.0555,0.007 0.0925,0.0407 0.023,0.02 0.0636,0.069 0.0902,0.10823 0.0478,0.0702 0.0481,0.0712 0.0265,0.0772 -0.012,0.002 -0.10422,0.0125 -0.20488,0.0225 z m 0.17295,-1.05384 c -0.10402,0.15646 -0.18747,0.17895 -0.35657,0.096 -0.0729,-0.0357 -0.0857,-0.0472 -0.0857,-0.0762 0,-0.025 0.0542,-0.13997 0.0657,-0.13997 0.003,3e-5 0.0936,0.0101 0.20097,0.02 0.10737,0.0125 0.2006,0.02 0.20713,0.02 0.0182,2.2e-4 0.0153,0.007 -0.0315,0.0785 z m -1.19057,-6.71718 c -0.0397,0.10072 -0.0743,0.1892 -0.077,0.19669 -0.004,0.0125 -0.0185,0.0125 -0.1064499,0.01 -0.0879,-0.003 -0.10886,-0.002 -0.15563,0.015 -0.0909,0.0302 -0.11936,0.0627 -0.23074,0.26251 -0.10178,0.18245 -0.24493,0.46365 -0.4221,0.82868 -0.1571,0.32366 -0.45886,0.96293 -0.46541,0.9859 l -0.006,0.02 h 0.2296 c 0.12627,0 0.22959,10e-4 0.22959,0.002 0,10e-4 -0.0146,0.0342 -0.0323,0.073 l -0.0323,0.0705 -0.18914,8.8e-4 c -0.20763,8.7e-4 -0.26925,0.01 -0.31487,0.0512 -0.0616,0.0542 -0.2666,0.50913 -0.5951,1.32041 -0.14186,0.35033 -0.37852,0.97059 -0.39792,1.04285 -0.0123,0.0455 -0.012,0.0497 0.005,0.065 0.0298,0.0263 0.11663,0.0357 0.26574,0.0292 0.0733,-0.002 0.16332,-0.0101 0.19999,-0.0125 0.0367,-0.002 0.068,-0.005 0.0697,-0.005 0.003,0.002 -0.0248,0.0937 -0.08,0.2698 l -0.0138,0.0437 -0.10699,1.7e-4 c -0.12528,2.3e-4 -0.19532,0.01 -0.25462,0.0365 -0.0844,0.0375 -0.1053,0.1202 -0.10392,0.41271 0.001,0.22269 0.005,0.2533 0.0393,0.2755 l 0.0258,0.0175 0.20277,-0.0297 c 0.11153,-0.0175 0.2049,-0.028 0.20753,-0.0257 0.005,0.005 0.0182,0.4747 0.0132,0.47989 -0.004,0.005 -2.74901,-0.015 -2.75381,-0.02 -0.002,-0.002 0.009,-0.0225 0.0238,-0.0452 l 0.0273,-0.042 0.0235,0.015 c 0.0356,0.025 0.11767,0.036 0.2044,0.03 0.13271,-0.0101 0.11905,0.001 0.23092,-0.1777 0.1308,-0.20919 0.33575,-0.57292 0.38352,-0.68054 0.0731,-0.16471 0.0815,-0.23469 0.0366,-0.30517 -0.0207,-0.0327 -0.08,-0.0667 -0.11595,-0.0667 -0.009,0 -0.016,-0.002 -0.016,-0.005 0,-0.005 0.084,-0.13971 0.0891,-0.14421 10e-4,-10e-4 0.0235,0.002 0.0495,0.01 0.0259,0.008 0.0794,0.0125 0.1188,0.0125 0.0932,10e-4 0.15622,-0.0225 0.21197,-0.0767 0.16925,-0.1672 1.20501,-1.79786 1.39345,-2.19386 0.0807,-0.1697 0.0333,-0.24743 -0.15083,-0.24743 l -0.0832,-2e-5 0.0353,-0.063 c 0.0195,-0.0345 0.0398,-0.063 0.0452,-0.063 0.005,0 0.0398,0.005 0.0765,0.0125 0.13736,0.0257 0.24503,0.0125 0.29965,-0.0387 0.0676,-0.0625 0.40347,-0.53738 0.72726,-1.02832 0.27327,-0.41437 0.52159,-0.83293 0.55994,-0.94382 0.0187,-0.054 0.0187,-0.0582 0.004,-0.10497 -0.009,-0.0267 -0.0285,-0.0627 -0.0442,-0.0802 -0.017,-0.02 -0.0255,-0.0357 -0.0213,-0.042 0.0316,-0.046 0.11092,-0.12197 0.16357,-0.15696 0.13995,-0.0927 0.43432,-0.19895 0.5755099,-0.20795 0.07,-0.005 0.0738,-0.003 0.0738,0.0125 0,0.01 -0.0324,0.0997 -0.0721,0.20045 z m 0.0497,14.59692 c -0.0614,0.0125 -0.2579199,-0.0397 -0.4490199,-0.12196 -0.15028,-0.0645 -0.23363,-0.11997 -0.30279,-0.20095 l -0.0443,-0.052 0.0324,-0.0415 c 0.0182,-0.0225 0.0371,-0.0615 0.043,-0.0867 0.0139,-0.0597 -0.002,-0.10321 -0.11869,-0.31124 -0.28102,-0.50274 -1.07746,-1.68154 -1.19494,-1.76862 -0.0561,-0.0415 -0.18465,-0.0495 -0.31213,-0.02 l -0.0498,0.0125 -0.0281,-0.0432 c -0.0155,-0.025 -0.0323,-0.053 -0.0374,-0.0647 l -0.009,-0.0225 0.0824,5.7e-4 c 0.066,3e-4 0.0888,-0.002 0.11475,-0.0175 0.0888,-0.046 0.0952,-0.10996 0.0254,-0.2517 -0.15012,-0.30477 -0.71087,-1.21242 -1.12734,-1.82473 -0.22955,-0.33751 -0.27293,-0.3871 -0.36313,-0.41514 -0.0523,-0.015 -0.1554,-0.0175 -0.21567,-2.5e-4 -0.0257,0.007 -0.0498,0.0125 -0.0534,0.0125 -0.006,7e-5 -0.0933,-0.13472 -0.0933,-0.14447 0,-0.002 0.017,-0.007 0.0378,-0.0101 0.0803,-0.0125 0.13289,-0.0927 0.12037,-0.18645 -0.0157,-0.11872 -0.1826,-0.43613 -0.48301,-0.9192 l -0.0661,-0.10647 -0.0498,-0.005 c -0.14898,-0.015 -0.22942,-0.0101 -0.2767,0.0225 -0.0147,0.01 -0.0283,0.015 -0.0299,0.015 -0.002,-0.001 -0.0185,-0.0277 -0.0374,-0.058 l -0.0343,-0.0552 1.38737,-0.005 c 0.76305,-0.002 1.38827,-0.005 1.38937,-0.002 0.005,0.005 -0.0108,0.49189 -0.0157,0.49627 -0.003,0.002 -0.0946,-0.007 -0.2035,-0.025 -0.22372,-0.0332 -0.23932,-0.032 -0.259,0.02 -0.0147,0.04 -0.0168,0.39827 -0.003,0.49152 0.0173,0.11472 0.0338,0.13896 0.11591,0.17095 0.0486,0.02 0.22642,0.0375 0.29734,0.031 0.0408,-0.002 0.0416,-0.002 0.0508,0.0267 0.005,0.0175 0.027,0.087 0.0484,0.15571 0.0215,0.0687 0.0375,0.12646 0.0357,0.12822 -0.002,0.002 -0.0414,-8.8e-4 -0.088,-0.005 -0.0466,-0.005 -0.1523,-0.007 -0.23497,-0.007 -0.1566,-8e-5 -0.20995,0.0101 -0.22249,0.0377 -0.008,0.02 0.0152,0.0917 0.12182,0.37482 0.28722,0.76249 0.70214,1.75103 0.82594,1.96777 0.0651,0.11397 0.0902,0.12271 0.36249,0.12496 l 0.19462,10e-4 0.0269,0.0615 c 0.0147,0.034 0.0292,0.068 0.032,0.0757 0.005,0.0125 -0.0135,0.015 -0.22097,0.015 -0.12435,3e-4 -0.2281,0.003 -0.23055,0.005 -0.006,0.005 0.27815,0.60699 0.51533,1.09468 0.1585,0.32591 0.36657,0.72563 0.44544,0.85575 0.043,0.071 0.0977,0.11746 0.16217,0.13771 0.0538,0.0175 0.14727,0.0225 0.21455,0.0101 0.0377,-0.005 0.0393,-0.005 0.0493,0.02 0.006,0.015 0.0407,0.10448 0.0777,0.1987 0.037,0.0945 0.0673,0.1782 0.0673,0.18645 0,0.008 -0.01,0.0175 -0.0225,0.02 z M 9.8676401,274.26422 c -0.1425,0.33291 -0.38076,0.87841 -0.60009,1.3738 l -0.15507,0.35025 h -0.2129 c -0.1171,0 -0.21289,-0.002 -0.21289,-0.005 0,-0.007 0.29598,-0.63253 0.43834,-0.9259 0.30433,-0.62713 0.50693,-1.00762 0.56265,-1.05671 0.0525,-0.0462 0.10565,-0.0632 0.19898,-0.0632 0.0942,-10e-5 0.1191999,0.005 0.10968,0.0272 -0.004,0.007 -0.0615,0.14297 -0.12867,0.29987 z m 0.1035,13.5818 c -0.0502,0.0101 -0.13635,0.005 -0.18232,-0.007 -0.0574,-0.015 -0.0978,-0.0412 -0.12717,-0.0822 -0.0683,-0.0955 -0.25365,-0.44768 -0.48679,-0.92545 -0.13707,-0.28088 -0.47894,-0.99971 -0.48579,-1.02143 -0.004,-0.0125 0.0101,-0.015 0.20907,-0.015 h 0.21372 l 0.22678,0.51386 c 0.12472,0.28265 0.30918,0.70454 0.4099,0.93755 0.23162,0.53593 0.25132,0.58194 0.2518799,0.58834 2.6e-4,0.002 -0.013,0.008 -0.0293,0.0101 z m -0.40117,-12.03022 c -0.017,0.015 -0.0546,0.035 -0.0836,0.0445 -0.0558,0.0175 -0.2124,0.0447 -0.21648,0.0362 -10e-4,-0.002 0.0182,-0.052 0.0433,-0.10973 l 0.0457,-0.10471 0.0472,0.002 c 0.072,0.002 0.1445,0.0263 0.17133,0.0542 0.0308,0.0322 0.0296,0.0447 -0.008,0.0772 z m 0.0165,10.22925 c -0.0182,0.0225 -0.10527,0.0517 -0.17475,0.058 l -0.0537,0.005 -0.0457,-0.10673 c -0.0251,-0.0587 -0.0434,-0.10872 -0.0406,-0.11097 0.008,-0.007 0.1336,0.0125 0.2019,0.0332 0.0675,0.02 0.12727,0.0607 0.12727,0.0877 0,0.0101 -0.006,0.025 -0.0143,0.034 z m -0.21083,-11.93749 c -0.0336,0.0747 -0.17464,0.32281 -0.27629,0.48614 -0.34761,0.5585 -0.89017,1.34561 -0.99144,1.43834 -0.0544,0.0497 -0.1335,0.058 -0.2856,0.03 -0.0275,-0.005 -0.05,-0.0125 -0.05,-0.015 0,-0.007 0.17188,-0.2916 0.24368,-0.40337 0.27536,-0.42848 0.77624,-1.10258 1.21626,-1.63691 l 0.0952,-0.11572 0.022,0.0175 c 0.0258,0.0225 0.0495,0.0755 0.0505,0.11521 4.2e-4,0.015 -0.0105,0.053 -0.0245,0.084 z m 0.0105,13.71074 c -0.008,0.02 -0.023,0.0465 -0.0335,0.0582 l -0.019,0.02 -0.0237,-0.0252 c -0.11418,-0.12096 -0.65279,-0.81421 -0.91588,-1.17876 -0.30763,-0.42626 -0.63774,-0.93909 -0.61545,-0.95614 0.0152,-0.0125 0.1197,-0.027 0.18462,-0.027 0.122,0 0.13988,0.015 0.34453,0.29932 0.40077,0.55575 0.92432,1.37101 1.056,1.64438 0.0403,0.0837 0.0438,0.10947 0.0222,0.16421 z m -0.11812,-11.35978 c -0.0267,0.0225 -0.0589,0.0375 -0.1119,0.0525 -0.0823,0.0225 -0.17365,0.043 -0.17882,0.0382 -0.002,-0.002 0.019,-0.0522 0.0463,-0.11221 l 0.0497,-0.10898 0.0471,0.003 c 0.0656,0.002 0.14427,0.025 0.16647,0.044 0.0282,0.025 0.0228,0.0492 -0.0187,0.084 z m 0.0233,8.94881 c -0.017,0.0225 -0.0833,0.0412 -0.1619,0.0487 l -0.0572,0.005 -0.0488,-0.11172 c -0.0268,-0.0615 -0.0479,-0.11273 -0.0468,-0.11372 10e-4,-10e-4 0.0467,0.007 0.10122,0.02 0.18033,0.0397 0.25842,0.0952 0.21345,0.15196 z m -0.39913,-8.92596 c -0.065,0.14646 -0.19292,0.4323 -0.28427,0.63532 -0.0914,0.20295 -0.1731,0.38615 -0.1817,0.40689 -0.008,0.02 -0.0823,0.25863 -0.16387,0.52856 -0.0815,0.26993 -0.15457,0.51009 -0.1623,0.53368 l -0.0139,0.043 -0.1116,0.01 c -0.12985,0.0125 -0.33698,0.0125 -0.37826,0.002 -0.025,-0.007 -0.0285,-0.0101 -0.0276,-0.0362 0.004,-0.11896 0.74536,-1.94032 0.9279,-2.27901 0.0431,-0.08 0.0496,-0.0875 0.0874,-0.10222 0.0225,-0.007 0.0833,-0.02 0.13522,-0.025 0.0988,-0.0101 0.29138,-0.002 0.29138,0.0101 0,0.005 -0.0532,0.12721 -0.1182,0.27352 z m 0.0352,9.10928 c -0.1518,0.0101 -0.32463,-0.007 -0.37343,-0.0415 -0.0677,-0.0462 -0.48198,-1.01075 -0.85289,-1.98536 -0.1109,-0.29145 -0.14655,-0.39789 -0.13625,-0.40697 0.0132,-0.0125 0.0838,-0.02 0.16943,-0.02 0.12432,-2.7e-4 0.33576,0.0175 0.34879,0.0282 0.0102,0.01 0.0485,0.13221 0.24235,0.77947 0.0467,0.15596 0.0992,0.31631 0.11673,0.35655 0.0329,0.0757 0.47735,1.06706 0.53485,1.19315 0.018,0.0392 0.0327,0.0757 0.033,0.081 3e-4,0.005 -0.0294,0.0125 -0.0825,0.015 z m -0.45575,-7.17108 c -0.008,0.0101 -0.035,0.0277 -0.0595,0.0388 -0.0425,0.02 -0.17327,0.058 -0.17855,0.0535 -0.001,-10e-4 0.009,-0.039 0.0228,-0.084 l 0.0252,-0.0817 h 0.0526 c 0.0622,0 0.11025,0.0101 0.13481,0.0305 0.0215,0.0175 0.0217,0.02 0.003,0.0435 z m 0.005,4.98505 c -0.005,0.008 -0.0235,0.02 -0.0405,0.025 -0.0446,0.0125 -0.13392,0.02 -0.14662,0.0125 -0.006,-0.002 -0.0213,-0.0415 -0.0342,-0.0842 -0.0275,-0.0915 -0.0293,-0.0902 0.0799,-0.0555 0.0945,0.03 0.14205,0.0572 0.15012,0.0855 4.3e-4,10e-4 -0.004,0.0101 -0.009,0.0175 z m -0.10245,-4.58226 c -0.0574,0.0357 -0.25312,0.11071 -0.26394,0.10122 -0.002,-0.002 0.008,-0.043 0.0225,-0.0915 0.0232,-0.0772 0.0292,-0.0882 0.0486,-0.0907 0.0295,-0.005 0.16757,0.015 0.19612,0.0257 0.0303,0.0125 0.0288,0.035 -0.004,0.0552 z m -0.0168,4.20254 c -0.021,0.007 -0.0742,0.0125 -0.11839,0.0125 l -0.0803,0.001 -0.0266,-0.0875 c -0.0146,-0.0482 -0.025,-0.089 -0.023,-0.0907 0.004,-0.003 0.16217,0.0495 0.20347,0.0682 0.0451,0.02 0.089,0.0565 0.0859,0.0705 -0.001,0.008 -0.02,0.0175 -0.0409,0.025 z m -0.54998,-3.37149 c -0.20555,0.0298 -0.22872,0.0312 -0.2444,0.015 -0.0172,-0.0175 -0.025,-0.32524 -0.0109,-0.44553 0.015,-0.12972 0.0327,-0.16695 0.0899,-0.1892 0.0536,-0.02 0.17035,-0.035 0.26306,-0.0315 l 0.0714,0.002 0.005,0.15096 c 0.003,0.083 0.006,0.22319 0.007,0.31119 l 0.002,0.16021 z m 0.177,2.90364 -0.006,0.22894 -0.12941,-0.005 c -0.191,-0.007 -0.25014,-0.0275 -0.27572,-0.0985 -0.0365,-0.10098 -0.0391,-0.54058 -0.004,-0.57197 0.009,-0.007 0.0516,-0.005 0.2094,0.0175 0.10863,0.015 0.20072,0.0297 0.20465,0.0317 0.009,0.005 0.009,0.10021 8.2e-4,0.39649 z m -0.085,-6.92325 c -0.0296,0.045 -0.12057,0.19519 -0.2022,0.33351 -0.0816,0.13846 -0.18792,0.31776 -0.23627,0.39851 l -0.0879,0.14672 -0.10545,0.002 c -0.0682,10e-4 -0.10545,-6e-4 -0.10545,-0.007 0,-0.0175 0.0806,-0.20095 0.135,-0.30624 0.0995,-0.19295 0.37805,-0.6514 0.41755,-0.68727 0.005,-0.005 0.0579,-0.002 0.12832,0.002 0.0936,0.007 0.11899,0.0125 0.11515,0.0225 -0.003,0.005 -0.0292,0.0482 -0.0588,0.0932 z m 0.0508,10.62392 c -0.006,2.8e-4 -0.0612,0.005 -0.12143,0.0125 -0.0602,0.005 -0.11037,0.0101 -0.1114,0.0101 -0.0172,-0.0125 -0.29025,-0.45235 -0.36401,-0.58799 -0.0863,-0.15871 -0.19123,-0.38694 -0.19123,-0.41596 0,-0.005 0.0468,-0.007 0.10395,-0.007 h 0.10398 l 0.0472,0.0775 c 0.026,0.0427 0.087,0.14545 0.13565,0.22869 0.11605,0.19819 0.31022,0.51953 0.36505,0.60406 0.0474,0.0732 0.05,0.0795 0.0322,0.0802 z m -0.068,-9.82222 c -0.14075,0.2991 -0.76966,1.316 -1.18845,1.92161 -0.22442,0.32454 -0.23932,0.33726 -0.39344,0.33631 -0.053,-2.8e-4 -0.0972,-0.005 -0.11587,-0.0125 l -0.0302,-0.0125 0.0926,-0.14672 c 0.18594,-0.29482 0.5476,-0.87424 0.82477,-1.32139 0.1602,-0.25843 0.51548,-0.8441 0.55288,-0.9114 0.025,-0.045 0.0283,-0.0475 0.069,-0.0525 0.20327,-0.025 0.26377,0.0392 0.18867,0.19869 z m 0.0175,9.07322 c -0.024,0.0302 -0.0648,0.0437 -0.1311,0.0437 -0.11628,0 -0.10586,0.008 -0.20427,-0.15795 -0.0483,-0.0815 -0.10632,-0.17845 -0.12885,-0.21544 -0.0225,-0.037 -0.0639,-0.10497 -0.092,-0.15096 -0.14823,-0.24369 -0.63149,-1.02198 -1.0368,-1.66955 l -0.15228,-0.24344 0.0306,-0.0101 c 0.0933,-0.0287 0.2052,-0.02 0.27034,0.0225 0.0213,0.0125 0.0639,0.0592 0.0992,0.10647 0.25522,0.34116 0.87268,1.30488 1.1759,1.83531 0.17475,0.30569 0.20765,0.39114 0.16924,0.43943 z m -1.6917,-7.11365 c -0.13197,0.21045 -0.26858,0.42809 -0.30359,0.48345 l -0.0636,0.10072 -0.11655,0.002 -0.11655,0.002 0.006,-0.0225 c 0.0143,-0.0522 0.117,-0.26752 0.1962,-0.41161 0.1482,-0.26968 0.34369,-0.5724 0.36955,-0.57227 0.009,5e-5 0.0693,0.005 0.13478,0.0125 0.0655,0.007 0.12225,0.0125 0.12618,0.0125 0.004,5e-5 0.007,0.002 0.007,0.005 0,0.002 -0.10797,0.17745 -0.23995,0.38802 z m 0.22327,5.39027 c -0.0414,0.01 -0.26064,0.025 -0.26884,0.0175 -0.0478,-0.042 -0.36854,-0.57937 -0.45763,-0.76649 -0.048,-0.10073 -0.0949,-0.21394 -0.0949,-0.22869 0,-0.005 0.0519,-0.005 0.11538,-0.005 l 0.11538,0.002 0.0732,0.11747 c 0.1056,0.16945 0.33202,0.5299 0.43993,0.70053 0.0511,0.0807 0.0931,0.14946 0.0935,0.15246 3.5e-4,0.002 -0.007,0.008 -0.016,0.0101 z m -0.31923,-4.57586 c -0.0649,0.14346 -0.3238,0.59519 -0.46054,0.80336 -0.0207,0.0315 -0.0487,0.0377 -0.1689,0.0377 -0.0726,0 -0.11812,-0.01 -0.15625,-0.0332 -0.009,-0.005 0.0767,-0.14897 0.33996,-0.56897 0.19362,-0.30882 0.35825,-0.565 0.36582,-0.56928 0.0203,-0.0125 0.0967,0.0175 0.11599,0.0427 0.0419,0.0562 0.0316,0.13772 -0.0361,0.2876 z m 0.0343,3.65516 c -0.0177,0.025 -0.0652,0.0452 -0.10045,0.045 -0.0163,-5e-5 -0.028,-0.0101 -0.0461,-0.0397 -0.0135,-0.0225 -0.0849,-0.13596 -0.15877,-0.25373 -0.0739,-0.11772 -0.22205,-0.35361 -0.3291,-0.52431 l -0.19464,-0.31037 0.0286,-0.0175 c 0.0157,-0.0101 0.048,-0.02 0.0716,-0.025 0.06,-0.007 0.20267,0.002 0.21734,0.015 0.022,0.02 0.20375,0.31852 0.3229,0.53096 0.21377,0.3811 0.25108,0.49587 0.1886,0.57989 z m -1.57414,-1.32239 h -0.1901 l -0.0155,-0.044 c -0.008,-0.025 -0.0178,-0.0672 -0.0207,-0.0955 -0.005,-0.0487 -0.004,-0.0522 0.02,-0.0662 0.0285,-0.0175 0.11487,-0.02 0.25586,-0.0101 0.0688,0.005 0.0852,0.0101 0.0935,0.0225 0.0115,0.0175 0.0448,0.14421 0.0461,0.17295 l 8e-4,0.02 z m 0.042,-1.19436 c -0.011,0.015 -0.0257,0.02 -0.10143,0.025 -0.1946,0.015 -0.26397,0.005 -0.2658,-0.0358 -0.002,-0.036 0.002,-0.0625 0.0115,-0.0967 l 0.009,-0.0315 h 0.18853 c 0.10367,0 0.19089,0.002 0.19379,0.005 0.008,0.007 -0.0208,0.11372 -0.0359,0.13498 z"
       id="path14-8-0-6" />
    <path
       style="fill:none;fill-opacity:1;stroke:#000000;stroke-width:0.264583;stroke-opacity:1"
       d="m 19.675227,138.37708 c 1.794093,4.81605 5.043375,9.07917 9.211556,12.08573 4.168181,3.00656 9.238779,4.74467 14.374898,4.92746 5.136118,0.18279 10.317448,-1.19046 14.688818,-3.89309 4.371369,-2.70264 7.915493,-6.72398 10.047417,-11.40031 0.480756,-1.05453 0.891594,-2.14129 1.415624,-3.175 1.331673,-2.62687 3.396475,-4.87385 5.889323,-6.44213 2.492848,-1.56828 5.405822,-2.45603 8.348826,-2.56796 2.943004,-0.11193 5.909178,0.54972 8.536293,1.88091 2.627116,1.33119 4.910938,3.32714 6.601242,5.73892 3.380606,4.82355 4.231206,11.28115 2.377616,16.87216 -1.853586,5.59101 -6.318904,10.2177 -11.777263,12.43164 -1.685624,0.6837 -3.474039,1.15162 -5.292144,1.20873 -1.818105,0.0571 -3.669717,-0.31072 -5.2516,-1.20873 -1.993917,-1.13191 -3.480117,-3.08506 -4.154647,-5.27639 -0.674531,-2.19133 -0.555667,-4.5986 0.217462,-6.75711 0.773129,-2.15852 2.182117,-4.06785 3.939262,-5.54073 1.757146,-1.47287 3.854157,-2.51718 6.05659,-3.15453 4.404867,-1.27469 9.131903,-0.92705 13.616539,0.0299 4.484641,0.95693 8.821121,2.50367 13.265411,3.63325 5.57382,1.41666 11.3151,2.17326 17.06563,2.24895"
       id="path15-6-3"
       inkscape:path-effect="#path-effect15-4-8"
       inkscape:original-d="m 19.675227,138.37708 c 16.460339,-0.79375 33.907138,9.68312 48.322689,1.71979 14.608258,-8.06979 -0.458015,-2.6632 1.415624,-3.175 18.564931,-5.07117 9.229516,8.24618 19.976037,27.91354 10.746533,19.66736 1.613894,8.73125 -10.543744,0 -12.157639,-8.73125 19.711457,-14.59617 32.940617,-17.06562 13.22917,-2.46944 -1.63159,-15.03716 17.06563,2.24895"
       sodipodi:nodetypes="csssssc"
       transform="matrix(-1,0,0,1,143.25288,130.63382)" />
  </g>
</svg>
